%TF.GenerationSoftware,KiCad,Pcbnew,9.0.0-9.0.0-2~ubuntu24.04.1*%
%TF.CreationDate,2025-03-10T00:00:20+00:00*%
%TF.ProjectId,boondocker-softstart,626f6f6e-646f-4636-9b65-722d736f6674,rev?*%
%TF.SameCoordinates,Original*%
%TF.FileFunction,Legend,Top*%
%TF.FilePolarity,Positive*%
%FSLAX46Y46*%
G04 Gerber Fmt 4.6, Leading zero omitted, Abs format (unit mm)*
G04 Created by KiCad (PCBNEW 9.0.0-9.0.0-2~ubuntu24.04.1) date 2025-03-10 00:00:20*
%MOMM*%
%LPD*%
G01*
G04 APERTURE LIST*
%ADD10C,0.150000*%
%ADD11C,0.360000*%
%ADD12C,0.254000*%
%ADD13C,0.120000*%
%ADD14C,0.100000*%
%ADD15C,0.200000*%
G04 APERTURE END LIST*
D10*
X97689160Y-87494295D02*
X97689160Y-86960961D01*
X97689160Y-87113342D02*
X97727255Y-87037152D01*
X97727255Y-87037152D02*
X97765350Y-86999057D01*
X97765350Y-86999057D02*
X97841541Y-86960961D01*
X97841541Y-86960961D02*
X97917731Y-86960961D01*
X98603445Y-87494295D02*
X98146302Y-87494295D01*
X98374874Y-87494295D02*
X98374874Y-86694295D01*
X98374874Y-86694295D02*
X98298683Y-86808580D01*
X98298683Y-86808580D02*
X98222493Y-86884771D01*
X98222493Y-86884771D02*
X98146302Y-86922866D01*
X99555827Y-87189533D02*
X100165351Y-87189533D01*
X101117731Y-86770485D02*
X101155827Y-86732390D01*
X101155827Y-86732390D02*
X101232017Y-86694295D01*
X101232017Y-86694295D02*
X101422493Y-86694295D01*
X101422493Y-86694295D02*
X101498684Y-86732390D01*
X101498684Y-86732390D02*
X101536779Y-86770485D01*
X101536779Y-86770485D02*
X101574874Y-86846676D01*
X101574874Y-86846676D02*
X101574874Y-86922866D01*
X101574874Y-86922866D02*
X101536779Y-87037152D01*
X101536779Y-87037152D02*
X101079636Y-87494295D01*
X101079636Y-87494295D02*
X101574874Y-87494295D01*
X102070113Y-86694295D02*
X102146303Y-86694295D01*
X102146303Y-86694295D02*
X102222494Y-86732390D01*
X102222494Y-86732390D02*
X102260589Y-86770485D01*
X102260589Y-86770485D02*
X102298684Y-86846676D01*
X102298684Y-86846676D02*
X102336779Y-86999057D01*
X102336779Y-86999057D02*
X102336779Y-87189533D01*
X102336779Y-87189533D02*
X102298684Y-87341914D01*
X102298684Y-87341914D02*
X102260589Y-87418104D01*
X102260589Y-87418104D02*
X102222494Y-87456200D01*
X102222494Y-87456200D02*
X102146303Y-87494295D01*
X102146303Y-87494295D02*
X102070113Y-87494295D01*
X102070113Y-87494295D02*
X101993922Y-87456200D01*
X101993922Y-87456200D02*
X101955827Y-87418104D01*
X101955827Y-87418104D02*
X101917732Y-87341914D01*
X101917732Y-87341914D02*
X101879636Y-87189533D01*
X101879636Y-87189533D02*
X101879636Y-86999057D01*
X101879636Y-86999057D02*
X101917732Y-86846676D01*
X101917732Y-86846676D02*
X101955827Y-86770485D01*
X101955827Y-86770485D02*
X101993922Y-86732390D01*
X101993922Y-86732390D02*
X102070113Y-86694295D01*
X102641541Y-86770485D02*
X102679637Y-86732390D01*
X102679637Y-86732390D02*
X102755827Y-86694295D01*
X102755827Y-86694295D02*
X102946303Y-86694295D01*
X102946303Y-86694295D02*
X103022494Y-86732390D01*
X103022494Y-86732390D02*
X103060589Y-86770485D01*
X103060589Y-86770485D02*
X103098684Y-86846676D01*
X103098684Y-86846676D02*
X103098684Y-86922866D01*
X103098684Y-86922866D02*
X103060589Y-87037152D01*
X103060589Y-87037152D02*
X102603446Y-87494295D01*
X102603446Y-87494295D02*
X103098684Y-87494295D01*
X103822494Y-86694295D02*
X103441542Y-86694295D01*
X103441542Y-86694295D02*
X103403446Y-87075247D01*
X103403446Y-87075247D02*
X103441542Y-87037152D01*
X103441542Y-87037152D02*
X103517732Y-86999057D01*
X103517732Y-86999057D02*
X103708208Y-86999057D01*
X103708208Y-86999057D02*
X103784399Y-87037152D01*
X103784399Y-87037152D02*
X103822494Y-87075247D01*
X103822494Y-87075247D02*
X103860589Y-87151438D01*
X103860589Y-87151438D02*
X103860589Y-87341914D01*
X103860589Y-87341914D02*
X103822494Y-87418104D01*
X103822494Y-87418104D02*
X103784399Y-87456200D01*
X103784399Y-87456200D02*
X103708208Y-87494295D01*
X103708208Y-87494295D02*
X103517732Y-87494295D01*
X103517732Y-87494295D02*
X103441542Y-87456200D01*
X103441542Y-87456200D02*
X103403446Y-87418104D01*
X104203447Y-87189533D02*
X104812971Y-87189533D01*
X105346304Y-86694295D02*
X105422494Y-86694295D01*
X105422494Y-86694295D02*
X105498685Y-86732390D01*
X105498685Y-86732390D02*
X105536780Y-86770485D01*
X105536780Y-86770485D02*
X105574875Y-86846676D01*
X105574875Y-86846676D02*
X105612970Y-86999057D01*
X105612970Y-86999057D02*
X105612970Y-87189533D01*
X105612970Y-87189533D02*
X105574875Y-87341914D01*
X105574875Y-87341914D02*
X105536780Y-87418104D01*
X105536780Y-87418104D02*
X105498685Y-87456200D01*
X105498685Y-87456200D02*
X105422494Y-87494295D01*
X105422494Y-87494295D02*
X105346304Y-87494295D01*
X105346304Y-87494295D02*
X105270113Y-87456200D01*
X105270113Y-87456200D02*
X105232018Y-87418104D01*
X105232018Y-87418104D02*
X105193923Y-87341914D01*
X105193923Y-87341914D02*
X105155827Y-87189533D01*
X105155827Y-87189533D02*
X105155827Y-86999057D01*
X105155827Y-86999057D02*
X105193923Y-86846676D01*
X105193923Y-86846676D02*
X105232018Y-86770485D01*
X105232018Y-86770485D02*
X105270113Y-86732390D01*
X105270113Y-86732390D02*
X105346304Y-86694295D01*
X105879637Y-86694295D02*
X106374875Y-86694295D01*
X106374875Y-86694295D02*
X106108209Y-86999057D01*
X106108209Y-86999057D02*
X106222494Y-86999057D01*
X106222494Y-86999057D02*
X106298685Y-87037152D01*
X106298685Y-87037152D02*
X106336780Y-87075247D01*
X106336780Y-87075247D02*
X106374875Y-87151438D01*
X106374875Y-87151438D02*
X106374875Y-87341914D01*
X106374875Y-87341914D02*
X106336780Y-87418104D01*
X106336780Y-87418104D02*
X106298685Y-87456200D01*
X106298685Y-87456200D02*
X106222494Y-87494295D01*
X106222494Y-87494295D02*
X105993923Y-87494295D01*
X105993923Y-87494295D02*
X105917732Y-87456200D01*
X105917732Y-87456200D02*
X105879637Y-87418104D01*
X106717733Y-87189533D02*
X107327257Y-87189533D01*
X107860590Y-86694295D02*
X107936780Y-86694295D01*
X107936780Y-86694295D02*
X108012971Y-86732390D01*
X108012971Y-86732390D02*
X108051066Y-86770485D01*
X108051066Y-86770485D02*
X108089161Y-86846676D01*
X108089161Y-86846676D02*
X108127256Y-86999057D01*
X108127256Y-86999057D02*
X108127256Y-87189533D01*
X108127256Y-87189533D02*
X108089161Y-87341914D01*
X108089161Y-87341914D02*
X108051066Y-87418104D01*
X108051066Y-87418104D02*
X108012971Y-87456200D01*
X108012971Y-87456200D02*
X107936780Y-87494295D01*
X107936780Y-87494295D02*
X107860590Y-87494295D01*
X107860590Y-87494295D02*
X107784399Y-87456200D01*
X107784399Y-87456200D02*
X107746304Y-87418104D01*
X107746304Y-87418104D02*
X107708209Y-87341914D01*
X107708209Y-87341914D02*
X107670113Y-87189533D01*
X107670113Y-87189533D02*
X107670113Y-86999057D01*
X107670113Y-86999057D02*
X107708209Y-86846676D01*
X107708209Y-86846676D02*
X107746304Y-86770485D01*
X107746304Y-86770485D02*
X107784399Y-86732390D01*
X107784399Y-86732390D02*
X107860590Y-86694295D01*
X108584399Y-87037152D02*
X108508209Y-86999057D01*
X108508209Y-86999057D02*
X108470114Y-86960961D01*
X108470114Y-86960961D02*
X108432018Y-86884771D01*
X108432018Y-86884771D02*
X108432018Y-86846676D01*
X108432018Y-86846676D02*
X108470114Y-86770485D01*
X108470114Y-86770485D02*
X108508209Y-86732390D01*
X108508209Y-86732390D02*
X108584399Y-86694295D01*
X108584399Y-86694295D02*
X108736780Y-86694295D01*
X108736780Y-86694295D02*
X108812971Y-86732390D01*
X108812971Y-86732390D02*
X108851066Y-86770485D01*
X108851066Y-86770485D02*
X108889161Y-86846676D01*
X108889161Y-86846676D02*
X108889161Y-86884771D01*
X108889161Y-86884771D02*
X108851066Y-86960961D01*
X108851066Y-86960961D02*
X108812971Y-86999057D01*
X108812971Y-86999057D02*
X108736780Y-87037152D01*
X108736780Y-87037152D02*
X108584399Y-87037152D01*
X108584399Y-87037152D02*
X108508209Y-87075247D01*
X108508209Y-87075247D02*
X108470114Y-87113342D01*
X108470114Y-87113342D02*
X108432018Y-87189533D01*
X108432018Y-87189533D02*
X108432018Y-87341914D01*
X108432018Y-87341914D02*
X108470114Y-87418104D01*
X108470114Y-87418104D02*
X108508209Y-87456200D01*
X108508209Y-87456200D02*
X108584399Y-87494295D01*
X108584399Y-87494295D02*
X108736780Y-87494295D01*
X108736780Y-87494295D02*
X108812971Y-87456200D01*
X108812971Y-87456200D02*
X108851066Y-87418104D01*
X108851066Y-87418104D02*
X108889161Y-87341914D01*
X108889161Y-87341914D02*
X108889161Y-87189533D01*
X108889161Y-87189533D02*
X108851066Y-87113342D01*
X108851066Y-87113342D02*
X108812971Y-87075247D01*
X108812971Y-87075247D02*
X108736780Y-87037152D01*
X97684398Y-88844295D02*
X97784398Y-88044295D01*
X97784398Y-88044295D02*
X98089160Y-88044295D01*
X98089160Y-88044295D02*
X98160588Y-88082390D01*
X98160588Y-88082390D02*
X98193922Y-88120485D01*
X98193922Y-88120485D02*
X98222493Y-88196676D01*
X98222493Y-88196676D02*
X98208207Y-88310961D01*
X98208207Y-88310961D02*
X98160588Y-88387152D01*
X98160588Y-88387152D02*
X98117731Y-88425247D01*
X98117731Y-88425247D02*
X98036779Y-88463342D01*
X98036779Y-88463342D02*
X97732017Y-88463342D01*
X98484398Y-88844295D02*
X98584398Y-88044295D01*
X98827255Y-88844295D02*
X98879636Y-88425247D01*
X98879636Y-88425247D02*
X98851064Y-88349057D01*
X98851064Y-88349057D02*
X98779636Y-88310961D01*
X98779636Y-88310961D02*
X98665350Y-88310961D01*
X98665350Y-88310961D02*
X98584398Y-88349057D01*
X98584398Y-88349057D02*
X98541541Y-88387152D01*
X99208208Y-88844295D02*
X99274874Y-88310961D01*
X99308208Y-88044295D02*
X99265351Y-88082390D01*
X99265351Y-88082390D02*
X99298684Y-88120485D01*
X99298684Y-88120485D02*
X99341541Y-88082390D01*
X99341541Y-88082390D02*
X99308208Y-88044295D01*
X99308208Y-88044295D02*
X99298684Y-88120485D01*
X99703446Y-88844295D02*
X99632017Y-88806200D01*
X99632017Y-88806200D02*
X99603446Y-88730009D01*
X99603446Y-88730009D02*
X99689160Y-88044295D01*
X101084398Y-88768104D02*
X101041541Y-88806200D01*
X101041541Y-88806200D02*
X100922494Y-88844295D01*
X100922494Y-88844295D02*
X100846303Y-88844295D01*
X100846303Y-88844295D02*
X100736779Y-88806200D01*
X100736779Y-88806200D02*
X100670113Y-88730009D01*
X100670113Y-88730009D02*
X100641541Y-88653819D01*
X100641541Y-88653819D02*
X100622494Y-88501438D01*
X100622494Y-88501438D02*
X100636779Y-88387152D01*
X100636779Y-88387152D02*
X100693922Y-88234771D01*
X100693922Y-88234771D02*
X100741541Y-88158580D01*
X100741541Y-88158580D02*
X100827256Y-88082390D01*
X100827256Y-88082390D02*
X100946303Y-88044295D01*
X100946303Y-88044295D02*
X101022494Y-88044295D01*
X101022494Y-88044295D02*
X101132018Y-88082390D01*
X101132018Y-88082390D02*
X101165351Y-88120485D01*
X101417732Y-88844295D02*
X101484398Y-88310961D01*
X101465351Y-88463342D02*
X101512970Y-88387152D01*
X101512970Y-88387152D02*
X101555827Y-88349057D01*
X101555827Y-88349057D02*
X101636779Y-88310961D01*
X101636779Y-88310961D02*
X101712970Y-88310961D01*
X102322494Y-88310961D02*
X102255827Y-88844295D01*
X101979636Y-88310961D02*
X101927256Y-88730009D01*
X101927256Y-88730009D02*
X101955827Y-88806200D01*
X101955827Y-88806200D02*
X102027256Y-88844295D01*
X102027256Y-88844295D02*
X102141541Y-88844295D01*
X102141541Y-88844295D02*
X102222494Y-88806200D01*
X102222494Y-88806200D02*
X102265351Y-88768104D01*
X102636780Y-88844295D02*
X102703446Y-88310961D01*
X102693923Y-88387152D02*
X102736780Y-88349057D01*
X102736780Y-88349057D02*
X102817732Y-88310961D01*
X102817732Y-88310961D02*
X102932018Y-88310961D01*
X102932018Y-88310961D02*
X103003446Y-88349057D01*
X103003446Y-88349057D02*
X103032018Y-88425247D01*
X103032018Y-88425247D02*
X102979637Y-88844295D01*
X103032018Y-88425247D02*
X103079637Y-88349057D01*
X103079637Y-88349057D02*
X103160589Y-88310961D01*
X103160589Y-88310961D02*
X103274875Y-88310961D01*
X103274875Y-88310961D02*
X103346304Y-88349057D01*
X103346304Y-88349057D02*
X103374875Y-88425247D01*
X103374875Y-88425247D02*
X103322494Y-88844295D01*
X103770113Y-88310961D02*
X103670113Y-89110961D01*
X103765352Y-88349057D02*
X103846304Y-88310961D01*
X103846304Y-88310961D02*
X103998685Y-88310961D01*
X103998685Y-88310961D02*
X104070113Y-88349057D01*
X104070113Y-88349057D02*
X104103447Y-88387152D01*
X104103447Y-88387152D02*
X104132018Y-88463342D01*
X104132018Y-88463342D02*
X104103447Y-88691914D01*
X104103447Y-88691914D02*
X104055828Y-88768104D01*
X104055828Y-88768104D02*
X104012971Y-88806200D01*
X104012971Y-88806200D02*
X103932018Y-88844295D01*
X103932018Y-88844295D02*
X103779637Y-88844295D01*
X103779637Y-88844295D02*
X103708209Y-88806200D01*
X105036781Y-88844295D02*
X105136781Y-88044295D01*
X105136781Y-88044295D02*
X105332019Y-88615723D01*
X105332019Y-88615723D02*
X105670114Y-88044295D01*
X105670114Y-88044295D02*
X105570114Y-88844295D01*
X106203448Y-88044295D02*
X106279638Y-88044295D01*
X106279638Y-88044295D02*
X106351067Y-88082390D01*
X106351067Y-88082390D02*
X106384400Y-88120485D01*
X106384400Y-88120485D02*
X106412972Y-88196676D01*
X106412972Y-88196676D02*
X106432019Y-88349057D01*
X106432019Y-88349057D02*
X106408210Y-88539533D01*
X106408210Y-88539533D02*
X106351067Y-88691914D01*
X106351067Y-88691914D02*
X106303448Y-88768104D01*
X106303448Y-88768104D02*
X106260591Y-88806200D01*
X106260591Y-88806200D02*
X106179638Y-88844295D01*
X106179638Y-88844295D02*
X106103448Y-88844295D01*
X106103448Y-88844295D02*
X106032019Y-88806200D01*
X106032019Y-88806200D02*
X105998686Y-88768104D01*
X105998686Y-88768104D02*
X105970114Y-88691914D01*
X105970114Y-88691914D02*
X105951067Y-88539533D01*
X105951067Y-88539533D02*
X105974876Y-88349057D01*
X105974876Y-88349057D02*
X106032019Y-88196676D01*
X106032019Y-88196676D02*
X106079638Y-88120485D01*
X106079638Y-88120485D02*
X106122495Y-88082390D01*
X106122495Y-88082390D02*
X106203448Y-88044295D01*
X106712972Y-88844295D02*
X106812972Y-88044295D01*
X106812972Y-88044295D02*
X107003448Y-88044295D01*
X107003448Y-88044295D02*
X107112972Y-88082390D01*
X107112972Y-88082390D02*
X107179638Y-88158580D01*
X107179638Y-88158580D02*
X107208210Y-88234771D01*
X107208210Y-88234771D02*
X107227258Y-88387152D01*
X107227258Y-88387152D02*
X107212972Y-88501438D01*
X107212972Y-88501438D02*
X107155829Y-88653819D01*
X107155829Y-88653819D02*
X107108210Y-88730009D01*
X107108210Y-88730009D02*
X107022496Y-88806200D01*
X107022496Y-88806200D02*
X106903448Y-88844295D01*
X106903448Y-88844295D02*
X106712972Y-88844295D01*
X107512972Y-88844295D02*
X107612972Y-88044295D01*
X107612972Y-88044295D02*
X107970115Y-88844295D01*
X107970115Y-88844295D02*
X108070115Y-88044295D01*
X108551067Y-88463342D02*
X108503448Y-88844295D01*
X108336781Y-88044295D02*
X108551067Y-88463342D01*
X108551067Y-88463342D02*
X108870114Y-88044295D01*
X108089200Y-100879887D02*
X108132057Y-100751316D01*
X108132057Y-100751316D02*
X108132057Y-100537030D01*
X108132057Y-100537030D02*
X108089200Y-100451316D01*
X108089200Y-100451316D02*
X108046342Y-100408458D01*
X108046342Y-100408458D02*
X107960628Y-100365601D01*
X107960628Y-100365601D02*
X107874914Y-100365601D01*
X107874914Y-100365601D02*
X107789200Y-100408458D01*
X107789200Y-100408458D02*
X107746342Y-100451316D01*
X107746342Y-100451316D02*
X107703485Y-100537030D01*
X107703485Y-100537030D02*
X107660628Y-100708458D01*
X107660628Y-100708458D02*
X107617771Y-100794173D01*
X107617771Y-100794173D02*
X107574914Y-100837030D01*
X107574914Y-100837030D02*
X107489200Y-100879887D01*
X107489200Y-100879887D02*
X107403485Y-100879887D01*
X107403485Y-100879887D02*
X107317771Y-100837030D01*
X107317771Y-100837030D02*
X107274914Y-100794173D01*
X107274914Y-100794173D02*
X107232057Y-100708458D01*
X107232057Y-100708458D02*
X107232057Y-100494173D01*
X107232057Y-100494173D02*
X107274914Y-100365601D01*
X107232057Y-100065601D02*
X108132057Y-99851315D01*
X108132057Y-99851315D02*
X107489200Y-99679887D01*
X107489200Y-99679887D02*
X108132057Y-99508458D01*
X108132057Y-99508458D02*
X107232057Y-99294173D01*
X108132057Y-98951316D02*
X107232057Y-98951316D01*
X107232057Y-98651316D02*
X107232057Y-98137031D01*
X108132057Y-98394173D02*
X107232057Y-98394173D01*
X108046342Y-97322745D02*
X108089200Y-97365602D01*
X108089200Y-97365602D02*
X108132057Y-97494174D01*
X108132057Y-97494174D02*
X108132057Y-97579888D01*
X108132057Y-97579888D02*
X108089200Y-97708459D01*
X108089200Y-97708459D02*
X108003485Y-97794174D01*
X108003485Y-97794174D02*
X107917771Y-97837031D01*
X107917771Y-97837031D02*
X107746342Y-97879888D01*
X107746342Y-97879888D02*
X107617771Y-97879888D01*
X107617771Y-97879888D02*
X107446342Y-97837031D01*
X107446342Y-97837031D02*
X107360628Y-97794174D01*
X107360628Y-97794174D02*
X107274914Y-97708459D01*
X107274914Y-97708459D02*
X107232057Y-97579888D01*
X107232057Y-97579888D02*
X107232057Y-97494174D01*
X107232057Y-97494174D02*
X107274914Y-97365602D01*
X107274914Y-97365602D02*
X107317771Y-97322745D01*
X108132057Y-96937031D02*
X107232057Y-96937031D01*
X107660628Y-96937031D02*
X107660628Y-96422745D01*
X108132057Y-96422745D02*
X107232057Y-96422745D01*
X83875247Y-94060839D02*
X83875247Y-93794173D01*
X84294295Y-93679887D02*
X84294295Y-94060839D01*
X84294295Y-94060839D02*
X83494295Y-94060839D01*
X83494295Y-94060839D02*
X83494295Y-93679887D01*
X84294295Y-93337029D02*
X83494295Y-93337029D01*
X83494295Y-93337029D02*
X84294295Y-92879886D01*
X84294295Y-92879886D02*
X83494295Y-92879886D01*
X84065723Y-92537030D02*
X84065723Y-92156077D01*
X84294295Y-92613220D02*
X83494295Y-92346553D01*
X83494295Y-92346553D02*
X84294295Y-92079887D01*
X83875247Y-91546554D02*
X83913342Y-91432268D01*
X83913342Y-91432268D02*
X83951438Y-91394173D01*
X83951438Y-91394173D02*
X84027628Y-91356077D01*
X84027628Y-91356077D02*
X84141914Y-91356077D01*
X84141914Y-91356077D02*
X84218104Y-91394173D01*
X84218104Y-91394173D02*
X84256200Y-91432268D01*
X84256200Y-91432268D02*
X84294295Y-91508458D01*
X84294295Y-91508458D02*
X84294295Y-91813220D01*
X84294295Y-91813220D02*
X83494295Y-91813220D01*
X83494295Y-91813220D02*
X83494295Y-91546554D01*
X83494295Y-91546554D02*
X83532390Y-91470363D01*
X83532390Y-91470363D02*
X83570485Y-91432268D01*
X83570485Y-91432268D02*
X83646676Y-91394173D01*
X83646676Y-91394173D02*
X83722866Y-91394173D01*
X83722866Y-91394173D02*
X83799057Y-91432268D01*
X83799057Y-91432268D02*
X83837152Y-91470363D01*
X83837152Y-91470363D02*
X83875247Y-91546554D01*
X83875247Y-91546554D02*
X83875247Y-91813220D01*
X84294295Y-90632268D02*
X84294295Y-91013220D01*
X84294295Y-91013220D02*
X83494295Y-91013220D01*
X83875247Y-90365601D02*
X83875247Y-90098935D01*
X84294295Y-89984649D02*
X84294295Y-90365601D01*
X84294295Y-90365601D02*
X83494295Y-90365601D01*
X83494295Y-90365601D02*
X83494295Y-89984649D01*
X84256200Y-89679887D02*
X84294295Y-89565601D01*
X84294295Y-89565601D02*
X84294295Y-89375125D01*
X84294295Y-89375125D02*
X84256200Y-89298934D01*
X84256200Y-89298934D02*
X84218104Y-89260839D01*
X84218104Y-89260839D02*
X84141914Y-89222744D01*
X84141914Y-89222744D02*
X84065723Y-89222744D01*
X84065723Y-89222744D02*
X83989533Y-89260839D01*
X83989533Y-89260839D02*
X83951438Y-89298934D01*
X83951438Y-89298934D02*
X83913342Y-89375125D01*
X83913342Y-89375125D02*
X83875247Y-89527506D01*
X83875247Y-89527506D02*
X83837152Y-89603696D01*
X83837152Y-89603696D02*
X83799057Y-89641791D01*
X83799057Y-89641791D02*
X83722866Y-89679887D01*
X83722866Y-89679887D02*
X83646676Y-89679887D01*
X83646676Y-89679887D02*
X83570485Y-89641791D01*
X83570485Y-89641791D02*
X83532390Y-89603696D01*
X83532390Y-89603696D02*
X83494295Y-89527506D01*
X83494295Y-89527506D02*
X83494295Y-89337029D01*
X83494295Y-89337029D02*
X83532390Y-89222744D01*
D11*
X94179699Y-85825280D02*
X94436842Y-85910994D01*
X94436842Y-85910994D02*
X94865413Y-85910994D01*
X94865413Y-85910994D02*
X95036842Y-85825280D01*
X95036842Y-85825280D02*
X95122556Y-85739565D01*
X95122556Y-85739565D02*
X95208270Y-85568137D01*
X95208270Y-85568137D02*
X95208270Y-85396708D01*
X95208270Y-85396708D02*
X95122556Y-85225280D01*
X95122556Y-85225280D02*
X95036842Y-85139565D01*
X95036842Y-85139565D02*
X94865413Y-85053851D01*
X94865413Y-85053851D02*
X94522556Y-84968137D01*
X94522556Y-84968137D02*
X94351127Y-84882422D01*
X94351127Y-84882422D02*
X94265413Y-84796708D01*
X94265413Y-84796708D02*
X94179699Y-84625280D01*
X94179699Y-84625280D02*
X94179699Y-84453851D01*
X94179699Y-84453851D02*
X94265413Y-84282422D01*
X94265413Y-84282422D02*
X94351127Y-84196708D01*
X94351127Y-84196708D02*
X94522556Y-84110994D01*
X94522556Y-84110994D02*
X94951127Y-84110994D01*
X94951127Y-84110994D02*
X95208270Y-84196708D01*
X96236842Y-85910994D02*
X96065413Y-85825280D01*
X96065413Y-85825280D02*
X95979699Y-85739565D01*
X95979699Y-85739565D02*
X95893985Y-85568137D01*
X95893985Y-85568137D02*
X95893985Y-85053851D01*
X95893985Y-85053851D02*
X95979699Y-84882422D01*
X95979699Y-84882422D02*
X96065413Y-84796708D01*
X96065413Y-84796708D02*
X96236842Y-84710994D01*
X96236842Y-84710994D02*
X96493985Y-84710994D01*
X96493985Y-84710994D02*
X96665413Y-84796708D01*
X96665413Y-84796708D02*
X96751128Y-84882422D01*
X96751128Y-84882422D02*
X96836842Y-85053851D01*
X96836842Y-85053851D02*
X96836842Y-85568137D01*
X96836842Y-85568137D02*
X96751128Y-85739565D01*
X96751128Y-85739565D02*
X96665413Y-85825280D01*
X96665413Y-85825280D02*
X96493985Y-85910994D01*
X96493985Y-85910994D02*
X96236842Y-85910994D01*
X97351127Y-84710994D02*
X98036841Y-84710994D01*
X97608270Y-85910994D02*
X97608270Y-84368137D01*
X97608270Y-84368137D02*
X97693984Y-84196708D01*
X97693984Y-84196708D02*
X97865413Y-84110994D01*
X97865413Y-84110994D02*
X98036841Y-84110994D01*
X98379698Y-84710994D02*
X99065412Y-84710994D01*
X98636841Y-84110994D02*
X98636841Y-85653851D01*
X98636841Y-85653851D02*
X98722555Y-85825280D01*
X98722555Y-85825280D02*
X98893984Y-85910994D01*
X98893984Y-85910994D02*
X99065412Y-85910994D01*
X99665412Y-85225280D02*
X101036841Y-85225280D01*
X102493983Y-84968137D02*
X102751126Y-85053851D01*
X102751126Y-85053851D02*
X102836840Y-85139565D01*
X102836840Y-85139565D02*
X102922554Y-85310994D01*
X102922554Y-85310994D02*
X102922554Y-85568137D01*
X102922554Y-85568137D02*
X102836840Y-85739565D01*
X102836840Y-85739565D02*
X102751126Y-85825280D01*
X102751126Y-85825280D02*
X102579697Y-85910994D01*
X102579697Y-85910994D02*
X101893983Y-85910994D01*
X101893983Y-85910994D02*
X101893983Y-84110994D01*
X101893983Y-84110994D02*
X102493983Y-84110994D01*
X102493983Y-84110994D02*
X102665412Y-84196708D01*
X102665412Y-84196708D02*
X102751126Y-84282422D01*
X102751126Y-84282422D02*
X102836840Y-84453851D01*
X102836840Y-84453851D02*
X102836840Y-84625280D01*
X102836840Y-84625280D02*
X102751126Y-84796708D01*
X102751126Y-84796708D02*
X102665412Y-84882422D01*
X102665412Y-84882422D02*
X102493983Y-84968137D01*
X102493983Y-84968137D02*
X101893983Y-84968137D01*
X103951126Y-85910994D02*
X103779697Y-85825280D01*
X103779697Y-85825280D02*
X103693983Y-85739565D01*
X103693983Y-85739565D02*
X103608269Y-85568137D01*
X103608269Y-85568137D02*
X103608269Y-85053851D01*
X103608269Y-85053851D02*
X103693983Y-84882422D01*
X103693983Y-84882422D02*
X103779697Y-84796708D01*
X103779697Y-84796708D02*
X103951126Y-84710994D01*
X103951126Y-84710994D02*
X104208269Y-84710994D01*
X104208269Y-84710994D02*
X104379697Y-84796708D01*
X104379697Y-84796708D02*
X104465412Y-84882422D01*
X104465412Y-84882422D02*
X104551126Y-85053851D01*
X104551126Y-85053851D02*
X104551126Y-85568137D01*
X104551126Y-85568137D02*
X104465412Y-85739565D01*
X104465412Y-85739565D02*
X104379697Y-85825280D01*
X104379697Y-85825280D02*
X104208269Y-85910994D01*
X104208269Y-85910994D02*
X103951126Y-85910994D01*
X105579697Y-85910994D02*
X105408268Y-85825280D01*
X105408268Y-85825280D02*
X105322554Y-85739565D01*
X105322554Y-85739565D02*
X105236840Y-85568137D01*
X105236840Y-85568137D02*
X105236840Y-85053851D01*
X105236840Y-85053851D02*
X105322554Y-84882422D01*
X105322554Y-84882422D02*
X105408268Y-84796708D01*
X105408268Y-84796708D02*
X105579697Y-84710994D01*
X105579697Y-84710994D02*
X105836840Y-84710994D01*
X105836840Y-84710994D02*
X106008268Y-84796708D01*
X106008268Y-84796708D02*
X106093983Y-84882422D01*
X106093983Y-84882422D02*
X106179697Y-85053851D01*
X106179697Y-85053851D02*
X106179697Y-85568137D01*
X106179697Y-85568137D02*
X106093983Y-85739565D01*
X106093983Y-85739565D02*
X106008268Y-85825280D01*
X106008268Y-85825280D02*
X105836840Y-85910994D01*
X105836840Y-85910994D02*
X105579697Y-85910994D01*
X106951125Y-84710994D02*
X106951125Y-85910994D01*
X106951125Y-84882422D02*
X107036839Y-84796708D01*
X107036839Y-84796708D02*
X107208268Y-84710994D01*
X107208268Y-84710994D02*
X107465411Y-84710994D01*
X107465411Y-84710994D02*
X107636839Y-84796708D01*
X107636839Y-84796708D02*
X107722554Y-84968137D01*
X107722554Y-84968137D02*
X107722554Y-85910994D01*
D10*
X83636779Y-84438866D02*
X84398684Y-84438866D01*
X84017731Y-84819819D02*
X84017731Y-84057914D01*
X93401064Y-102806200D02*
X93515350Y-102844295D01*
X93515350Y-102844295D02*
X93705826Y-102844295D01*
X93705826Y-102844295D02*
X93782017Y-102806200D01*
X93782017Y-102806200D02*
X93820112Y-102768104D01*
X93820112Y-102768104D02*
X93858207Y-102691914D01*
X93858207Y-102691914D02*
X93858207Y-102615723D01*
X93858207Y-102615723D02*
X93820112Y-102539533D01*
X93820112Y-102539533D02*
X93782017Y-102501438D01*
X93782017Y-102501438D02*
X93705826Y-102463342D01*
X93705826Y-102463342D02*
X93553445Y-102425247D01*
X93553445Y-102425247D02*
X93477255Y-102387152D01*
X93477255Y-102387152D02*
X93439160Y-102349057D01*
X93439160Y-102349057D02*
X93401064Y-102272866D01*
X93401064Y-102272866D02*
X93401064Y-102196676D01*
X93401064Y-102196676D02*
X93439160Y-102120485D01*
X93439160Y-102120485D02*
X93477255Y-102082390D01*
X93477255Y-102082390D02*
X93553445Y-102044295D01*
X93553445Y-102044295D02*
X93743922Y-102044295D01*
X93743922Y-102044295D02*
X93858207Y-102082390D01*
X94124874Y-102044295D02*
X94315350Y-102844295D01*
X94315350Y-102844295D02*
X94467731Y-102272866D01*
X94467731Y-102272866D02*
X94620112Y-102844295D01*
X94620112Y-102844295D02*
X94810589Y-102044295D01*
X95115351Y-102844295D02*
X95115351Y-102044295D01*
X95115351Y-102044295D02*
X95305827Y-102044295D01*
X95305827Y-102044295D02*
X95420113Y-102082390D01*
X95420113Y-102082390D02*
X95496303Y-102158580D01*
X95496303Y-102158580D02*
X95534398Y-102234771D01*
X95534398Y-102234771D02*
X95572494Y-102387152D01*
X95572494Y-102387152D02*
X95572494Y-102501438D01*
X95572494Y-102501438D02*
X95534398Y-102653819D01*
X95534398Y-102653819D02*
X95496303Y-102730009D01*
X95496303Y-102730009D02*
X95420113Y-102806200D01*
X95420113Y-102806200D02*
X95305827Y-102844295D01*
X95305827Y-102844295D02*
X95115351Y-102844295D01*
X84260588Y-86517438D02*
X84165350Y-86469819D01*
X84165350Y-86469819D02*
X84022493Y-86469819D01*
X84022493Y-86469819D02*
X83879636Y-86517438D01*
X83879636Y-86517438D02*
X83784398Y-86612676D01*
X83784398Y-86612676D02*
X83736779Y-86707914D01*
X83736779Y-86707914D02*
X83689160Y-86898390D01*
X83689160Y-86898390D02*
X83689160Y-87041247D01*
X83689160Y-87041247D02*
X83736779Y-87231723D01*
X83736779Y-87231723D02*
X83784398Y-87326961D01*
X83784398Y-87326961D02*
X83879636Y-87422200D01*
X83879636Y-87422200D02*
X84022493Y-87469819D01*
X84022493Y-87469819D02*
X84117731Y-87469819D01*
X84117731Y-87469819D02*
X84260588Y-87422200D01*
X84260588Y-87422200D02*
X84308207Y-87374580D01*
X84308207Y-87374580D02*
X84308207Y-87041247D01*
X84308207Y-87041247D02*
X84117731Y-87041247D01*
X104954819Y-97313333D02*
X105669104Y-97313333D01*
X105669104Y-97313333D02*
X105811961Y-97360952D01*
X105811961Y-97360952D02*
X105907200Y-97456190D01*
X105907200Y-97456190D02*
X105954819Y-97599047D01*
X105954819Y-97599047D02*
X105954819Y-97694285D01*
X105050057Y-96884761D02*
X105002438Y-96837142D01*
X105002438Y-96837142D02*
X104954819Y-96741904D01*
X104954819Y-96741904D02*
X104954819Y-96503809D01*
X104954819Y-96503809D02*
X105002438Y-96408571D01*
X105002438Y-96408571D02*
X105050057Y-96360952D01*
X105050057Y-96360952D02*
X105145295Y-96313333D01*
X105145295Y-96313333D02*
X105240533Y-96313333D01*
X105240533Y-96313333D02*
X105383390Y-96360952D01*
X105383390Y-96360952D02*
X105954819Y-96932380D01*
X105954819Y-96932380D02*
X105954819Y-96313333D01*
X87295833Y-100254819D02*
X86962500Y-99778628D01*
X86724405Y-100254819D02*
X86724405Y-99254819D01*
X86724405Y-99254819D02*
X87105357Y-99254819D01*
X87105357Y-99254819D02*
X87200595Y-99302438D01*
X87200595Y-99302438D02*
X87248214Y-99350057D01*
X87248214Y-99350057D02*
X87295833Y-99445295D01*
X87295833Y-99445295D02*
X87295833Y-99588152D01*
X87295833Y-99588152D02*
X87248214Y-99683390D01*
X87248214Y-99683390D02*
X87200595Y-99731009D01*
X87200595Y-99731009D02*
X87105357Y-99778628D01*
X87105357Y-99778628D02*
X86724405Y-99778628D01*
X88248214Y-100254819D02*
X87676786Y-100254819D01*
X87962500Y-100254819D02*
X87962500Y-99254819D01*
X87962500Y-99254819D02*
X87867262Y-99397676D01*
X87867262Y-99397676D02*
X87772024Y-99492914D01*
X87772024Y-99492914D02*
X87676786Y-99540533D01*
X106483333Y-83559580D02*
X106435714Y-83607200D01*
X106435714Y-83607200D02*
X106292857Y-83654819D01*
X106292857Y-83654819D02*
X106197619Y-83654819D01*
X106197619Y-83654819D02*
X106054762Y-83607200D01*
X106054762Y-83607200D02*
X105959524Y-83511961D01*
X105959524Y-83511961D02*
X105911905Y-83416723D01*
X105911905Y-83416723D02*
X105864286Y-83226247D01*
X105864286Y-83226247D02*
X105864286Y-83083390D01*
X105864286Y-83083390D02*
X105911905Y-82892914D01*
X105911905Y-82892914D02*
X105959524Y-82797676D01*
X105959524Y-82797676D02*
X106054762Y-82702438D01*
X106054762Y-82702438D02*
X106197619Y-82654819D01*
X106197619Y-82654819D02*
X106292857Y-82654819D01*
X106292857Y-82654819D02*
X106435714Y-82702438D01*
X106435714Y-82702438D02*
X106483333Y-82750057D01*
X107340476Y-82988152D02*
X107340476Y-83654819D01*
X107102381Y-82607200D02*
X106864286Y-83321485D01*
X106864286Y-83321485D02*
X107483333Y-83321485D01*
X80066666Y-96654819D02*
X80066666Y-97369104D01*
X80066666Y-97369104D02*
X80019047Y-97511961D01*
X80019047Y-97511961D02*
X79923809Y-97607200D01*
X79923809Y-97607200D02*
X79780952Y-97654819D01*
X79780952Y-97654819D02*
X79685714Y-97654819D01*
X80447619Y-96654819D02*
X81066666Y-96654819D01*
X81066666Y-96654819D02*
X80733333Y-97035771D01*
X80733333Y-97035771D02*
X80876190Y-97035771D01*
X80876190Y-97035771D02*
X80971428Y-97083390D01*
X80971428Y-97083390D02*
X81019047Y-97131009D01*
X81019047Y-97131009D02*
X81066666Y-97226247D01*
X81066666Y-97226247D02*
X81066666Y-97464342D01*
X81066666Y-97464342D02*
X81019047Y-97559580D01*
X81019047Y-97559580D02*
X80971428Y-97607200D01*
X80971428Y-97607200D02*
X80876190Y-97654819D01*
X80876190Y-97654819D02*
X80590476Y-97654819D01*
X80590476Y-97654819D02*
X80495238Y-97607200D01*
X80495238Y-97607200D02*
X80447619Y-97559580D01*
X103159580Y-77366666D02*
X103207200Y-77414285D01*
X103207200Y-77414285D02*
X103254819Y-77557142D01*
X103254819Y-77557142D02*
X103254819Y-77652380D01*
X103254819Y-77652380D02*
X103207200Y-77795237D01*
X103207200Y-77795237D02*
X103111961Y-77890475D01*
X103111961Y-77890475D02*
X103016723Y-77938094D01*
X103016723Y-77938094D02*
X102826247Y-77985713D01*
X102826247Y-77985713D02*
X102683390Y-77985713D01*
X102683390Y-77985713D02*
X102492914Y-77938094D01*
X102492914Y-77938094D02*
X102397676Y-77890475D01*
X102397676Y-77890475D02*
X102302438Y-77795237D01*
X102302438Y-77795237D02*
X102254819Y-77652380D01*
X102254819Y-77652380D02*
X102254819Y-77557142D01*
X102254819Y-77557142D02*
X102302438Y-77414285D01*
X102302438Y-77414285D02*
X102350057Y-77366666D01*
X102350057Y-76985713D02*
X102302438Y-76938094D01*
X102302438Y-76938094D02*
X102254819Y-76842856D01*
X102254819Y-76842856D02*
X102254819Y-76604761D01*
X102254819Y-76604761D02*
X102302438Y-76509523D01*
X102302438Y-76509523D02*
X102350057Y-76461904D01*
X102350057Y-76461904D02*
X102445295Y-76414285D01*
X102445295Y-76414285D02*
X102540533Y-76414285D01*
X102540533Y-76414285D02*
X102683390Y-76461904D01*
X102683390Y-76461904D02*
X103254819Y-77033332D01*
X103254819Y-77033332D02*
X103254819Y-76414285D01*
X89650057Y-89445238D02*
X89602438Y-89540476D01*
X89602438Y-89540476D02*
X89507200Y-89635714D01*
X89507200Y-89635714D02*
X89364342Y-89778571D01*
X89364342Y-89778571D02*
X89316723Y-89873809D01*
X89316723Y-89873809D02*
X89316723Y-89969047D01*
X89554819Y-89921428D02*
X89507200Y-90016666D01*
X89507200Y-90016666D02*
X89411961Y-90111904D01*
X89411961Y-90111904D02*
X89221485Y-90159523D01*
X89221485Y-90159523D02*
X88888152Y-90159523D01*
X88888152Y-90159523D02*
X88697676Y-90111904D01*
X88697676Y-90111904D02*
X88602438Y-90016666D01*
X88602438Y-90016666D02*
X88554819Y-89921428D01*
X88554819Y-89921428D02*
X88554819Y-89730952D01*
X88554819Y-89730952D02*
X88602438Y-89635714D01*
X88602438Y-89635714D02*
X88697676Y-89540476D01*
X88697676Y-89540476D02*
X88888152Y-89492857D01*
X88888152Y-89492857D02*
X89221485Y-89492857D01*
X89221485Y-89492857D02*
X89411961Y-89540476D01*
X89411961Y-89540476D02*
X89507200Y-89635714D01*
X89507200Y-89635714D02*
X89554819Y-89730952D01*
X89554819Y-89730952D02*
X89554819Y-89921428D01*
X88650057Y-89111904D02*
X88602438Y-89064285D01*
X88602438Y-89064285D02*
X88554819Y-88969047D01*
X88554819Y-88969047D02*
X88554819Y-88730952D01*
X88554819Y-88730952D02*
X88602438Y-88635714D01*
X88602438Y-88635714D02*
X88650057Y-88588095D01*
X88650057Y-88588095D02*
X88745295Y-88540476D01*
X88745295Y-88540476D02*
X88840533Y-88540476D01*
X88840533Y-88540476D02*
X88983390Y-88588095D01*
X88983390Y-88588095D02*
X89554819Y-89159523D01*
X89554819Y-89159523D02*
X89554819Y-88540476D01*
X89700057Y-85045238D02*
X89652438Y-85140476D01*
X89652438Y-85140476D02*
X89557200Y-85235714D01*
X89557200Y-85235714D02*
X89414342Y-85378571D01*
X89414342Y-85378571D02*
X89366723Y-85473809D01*
X89366723Y-85473809D02*
X89366723Y-85569047D01*
X89604819Y-85521428D02*
X89557200Y-85616666D01*
X89557200Y-85616666D02*
X89461961Y-85711904D01*
X89461961Y-85711904D02*
X89271485Y-85759523D01*
X89271485Y-85759523D02*
X88938152Y-85759523D01*
X88938152Y-85759523D02*
X88747676Y-85711904D01*
X88747676Y-85711904D02*
X88652438Y-85616666D01*
X88652438Y-85616666D02*
X88604819Y-85521428D01*
X88604819Y-85521428D02*
X88604819Y-85330952D01*
X88604819Y-85330952D02*
X88652438Y-85235714D01*
X88652438Y-85235714D02*
X88747676Y-85140476D01*
X88747676Y-85140476D02*
X88938152Y-85092857D01*
X88938152Y-85092857D02*
X89271485Y-85092857D01*
X89271485Y-85092857D02*
X89461961Y-85140476D01*
X89461961Y-85140476D02*
X89557200Y-85235714D01*
X89557200Y-85235714D02*
X89604819Y-85330952D01*
X89604819Y-85330952D02*
X89604819Y-85521428D01*
X89604819Y-84140476D02*
X89604819Y-84711904D01*
X89604819Y-84426190D02*
X88604819Y-84426190D01*
X88604819Y-84426190D02*
X88747676Y-84521428D01*
X88747676Y-84521428D02*
X88842914Y-84616666D01*
X88842914Y-84616666D02*
X88890533Y-84711904D01*
X93438095Y-96704819D02*
X93438095Y-97514342D01*
X93438095Y-97514342D02*
X93485714Y-97609580D01*
X93485714Y-97609580D02*
X93533333Y-97657200D01*
X93533333Y-97657200D02*
X93628571Y-97704819D01*
X93628571Y-97704819D02*
X93819047Y-97704819D01*
X93819047Y-97704819D02*
X93914285Y-97657200D01*
X93914285Y-97657200D02*
X93961904Y-97609580D01*
X93961904Y-97609580D02*
X94009523Y-97514342D01*
X94009523Y-97514342D02*
X94009523Y-96704819D01*
X95009523Y-97704819D02*
X94438095Y-97704819D01*
X94723809Y-97704819D02*
X94723809Y-96704819D01*
X94723809Y-96704819D02*
X94628571Y-96847676D01*
X94628571Y-96847676D02*
X94533333Y-96942914D01*
X94533333Y-96942914D02*
X94438095Y-96990533D01*
D12*
X89676667Y-100454318D02*
X89676667Y-101361461D01*
X89676667Y-101361461D02*
X89616190Y-101542889D01*
X89616190Y-101542889D02*
X89495238Y-101663842D01*
X89495238Y-101663842D02*
X89313809Y-101724318D01*
X89313809Y-101724318D02*
X89192857Y-101724318D01*
X90946667Y-101724318D02*
X90220952Y-101724318D01*
X90583809Y-101724318D02*
X90583809Y-100454318D01*
X90583809Y-100454318D02*
X90462857Y-100635746D01*
X90462857Y-100635746D02*
X90341905Y-100756699D01*
X90341905Y-100756699D02*
X90220952Y-100817175D01*
D10*
X92704819Y-95666666D02*
X92228628Y-95999999D01*
X92704819Y-96238094D02*
X91704819Y-96238094D01*
X91704819Y-96238094D02*
X91704819Y-95857142D01*
X91704819Y-95857142D02*
X91752438Y-95761904D01*
X91752438Y-95761904D02*
X91800057Y-95714285D01*
X91800057Y-95714285D02*
X91895295Y-95666666D01*
X91895295Y-95666666D02*
X92038152Y-95666666D01*
X92038152Y-95666666D02*
X92133390Y-95714285D01*
X92133390Y-95714285D02*
X92181009Y-95761904D01*
X92181009Y-95761904D02*
X92228628Y-95857142D01*
X92228628Y-95857142D02*
X92228628Y-96238094D01*
X92038152Y-94809523D02*
X92704819Y-94809523D01*
X91657200Y-95047618D02*
X92371485Y-95285713D01*
X92371485Y-95285713D02*
X92371485Y-94666666D01*
X103059580Y-81766666D02*
X103107200Y-81814285D01*
X103107200Y-81814285D02*
X103154819Y-81957142D01*
X103154819Y-81957142D02*
X103154819Y-82052380D01*
X103154819Y-82052380D02*
X103107200Y-82195237D01*
X103107200Y-82195237D02*
X103011961Y-82290475D01*
X103011961Y-82290475D02*
X102916723Y-82338094D01*
X102916723Y-82338094D02*
X102726247Y-82385713D01*
X102726247Y-82385713D02*
X102583390Y-82385713D01*
X102583390Y-82385713D02*
X102392914Y-82338094D01*
X102392914Y-82338094D02*
X102297676Y-82290475D01*
X102297676Y-82290475D02*
X102202438Y-82195237D01*
X102202438Y-82195237D02*
X102154819Y-82052380D01*
X102154819Y-82052380D02*
X102154819Y-81957142D01*
X102154819Y-81957142D02*
X102202438Y-81814285D01*
X102202438Y-81814285D02*
X102250057Y-81766666D01*
X103154819Y-80814285D02*
X103154819Y-81385713D01*
X103154819Y-81099999D02*
X102154819Y-81099999D01*
X102154819Y-81099999D02*
X102297676Y-81195237D01*
X102297676Y-81195237D02*
X102392914Y-81290475D01*
X102392914Y-81290475D02*
X102440533Y-81385713D01*
X89088095Y-82104819D02*
X89088095Y-82914342D01*
X89088095Y-82914342D02*
X89135714Y-83009580D01*
X89135714Y-83009580D02*
X89183333Y-83057200D01*
X89183333Y-83057200D02*
X89278571Y-83104819D01*
X89278571Y-83104819D02*
X89469047Y-83104819D01*
X89469047Y-83104819D02*
X89564285Y-83057200D01*
X89564285Y-83057200D02*
X89611904Y-83009580D01*
X89611904Y-83009580D02*
X89659523Y-82914342D01*
X89659523Y-82914342D02*
X89659523Y-82104819D01*
X90564285Y-82438152D02*
X90564285Y-83104819D01*
X90326190Y-82057200D02*
X90088095Y-82771485D01*
X90088095Y-82771485D02*
X90707142Y-82771485D01*
X89700057Y-93895238D02*
X89652438Y-93990476D01*
X89652438Y-93990476D02*
X89557200Y-94085714D01*
X89557200Y-94085714D02*
X89414342Y-94228571D01*
X89414342Y-94228571D02*
X89366723Y-94323809D01*
X89366723Y-94323809D02*
X89366723Y-94419047D01*
X89604819Y-94371428D02*
X89557200Y-94466666D01*
X89557200Y-94466666D02*
X89461961Y-94561904D01*
X89461961Y-94561904D02*
X89271485Y-94609523D01*
X89271485Y-94609523D02*
X88938152Y-94609523D01*
X88938152Y-94609523D02*
X88747676Y-94561904D01*
X88747676Y-94561904D02*
X88652438Y-94466666D01*
X88652438Y-94466666D02*
X88604819Y-94371428D01*
X88604819Y-94371428D02*
X88604819Y-94180952D01*
X88604819Y-94180952D02*
X88652438Y-94085714D01*
X88652438Y-94085714D02*
X88747676Y-93990476D01*
X88747676Y-93990476D02*
X88938152Y-93942857D01*
X88938152Y-93942857D02*
X89271485Y-93942857D01*
X89271485Y-93942857D02*
X89461961Y-93990476D01*
X89461961Y-93990476D02*
X89557200Y-94085714D01*
X89557200Y-94085714D02*
X89604819Y-94180952D01*
X89604819Y-94180952D02*
X89604819Y-94371428D01*
X88604819Y-93609523D02*
X88604819Y-92990476D01*
X88604819Y-92990476D02*
X88985771Y-93323809D01*
X88985771Y-93323809D02*
X88985771Y-93180952D01*
X88985771Y-93180952D02*
X89033390Y-93085714D01*
X89033390Y-93085714D02*
X89081009Y-93038095D01*
X89081009Y-93038095D02*
X89176247Y-92990476D01*
X89176247Y-92990476D02*
X89414342Y-92990476D01*
X89414342Y-92990476D02*
X89509580Y-93038095D01*
X89509580Y-93038095D02*
X89557200Y-93085714D01*
X89557200Y-93085714D02*
X89604819Y-93180952D01*
X89604819Y-93180952D02*
X89604819Y-93466666D01*
X89604819Y-93466666D02*
X89557200Y-93561904D01*
X89557200Y-93561904D02*
X89509580Y-93609523D01*
X102954819Y-80011904D02*
X103764342Y-80011904D01*
X103764342Y-80011904D02*
X103859580Y-79964285D01*
X103859580Y-79964285D02*
X103907200Y-79916666D01*
X103907200Y-79916666D02*
X103954819Y-79821428D01*
X103954819Y-79821428D02*
X103954819Y-79630952D01*
X103954819Y-79630952D02*
X103907200Y-79535714D01*
X103907200Y-79535714D02*
X103859580Y-79488095D01*
X103859580Y-79488095D02*
X103764342Y-79440476D01*
X103764342Y-79440476D02*
X102954819Y-79440476D01*
X102954819Y-79059523D02*
X102954819Y-78440476D01*
X102954819Y-78440476D02*
X103335771Y-78773809D01*
X103335771Y-78773809D02*
X103335771Y-78630952D01*
X103335771Y-78630952D02*
X103383390Y-78535714D01*
X103383390Y-78535714D02*
X103431009Y-78488095D01*
X103431009Y-78488095D02*
X103526247Y-78440476D01*
X103526247Y-78440476D02*
X103764342Y-78440476D01*
X103764342Y-78440476D02*
X103859580Y-78488095D01*
X103859580Y-78488095D02*
X103907200Y-78535714D01*
X103907200Y-78535714D02*
X103954819Y-78630952D01*
X103954819Y-78630952D02*
X103954819Y-78916666D01*
X103954819Y-78916666D02*
X103907200Y-79011904D01*
X103907200Y-79011904D02*
X103859580Y-79059523D01*
X92858333Y-88609580D02*
X92810714Y-88657200D01*
X92810714Y-88657200D02*
X92667857Y-88704819D01*
X92667857Y-88704819D02*
X92572619Y-88704819D01*
X92572619Y-88704819D02*
X92429762Y-88657200D01*
X92429762Y-88657200D02*
X92334524Y-88561961D01*
X92334524Y-88561961D02*
X92286905Y-88466723D01*
X92286905Y-88466723D02*
X92239286Y-88276247D01*
X92239286Y-88276247D02*
X92239286Y-88133390D01*
X92239286Y-88133390D02*
X92286905Y-87942914D01*
X92286905Y-87942914D02*
X92334524Y-87847676D01*
X92334524Y-87847676D02*
X92429762Y-87752438D01*
X92429762Y-87752438D02*
X92572619Y-87704819D01*
X92572619Y-87704819D02*
X92667857Y-87704819D01*
X92667857Y-87704819D02*
X92810714Y-87752438D01*
X92810714Y-87752438D02*
X92858333Y-87800057D01*
X93191667Y-87704819D02*
X93810714Y-87704819D01*
X93810714Y-87704819D02*
X93477381Y-88085771D01*
X93477381Y-88085771D02*
X93620238Y-88085771D01*
X93620238Y-88085771D02*
X93715476Y-88133390D01*
X93715476Y-88133390D02*
X93763095Y-88181009D01*
X93763095Y-88181009D02*
X93810714Y-88276247D01*
X93810714Y-88276247D02*
X93810714Y-88514342D01*
X93810714Y-88514342D02*
X93763095Y-88609580D01*
X93763095Y-88609580D02*
X93715476Y-88657200D01*
X93715476Y-88657200D02*
X93620238Y-88704819D01*
X93620238Y-88704819D02*
X93334524Y-88704819D01*
X93334524Y-88704819D02*
X93239286Y-88657200D01*
X93239286Y-88657200D02*
X93191667Y-88609580D01*
X92654819Y-91116666D02*
X92178628Y-91449999D01*
X92654819Y-91688094D02*
X91654819Y-91688094D01*
X91654819Y-91688094D02*
X91654819Y-91307142D01*
X91654819Y-91307142D02*
X91702438Y-91211904D01*
X91702438Y-91211904D02*
X91750057Y-91164285D01*
X91750057Y-91164285D02*
X91845295Y-91116666D01*
X91845295Y-91116666D02*
X91988152Y-91116666D01*
X91988152Y-91116666D02*
X92083390Y-91164285D01*
X92083390Y-91164285D02*
X92131009Y-91211904D01*
X92131009Y-91211904D02*
X92178628Y-91307142D01*
X92178628Y-91307142D02*
X92178628Y-91688094D01*
X91654819Y-90783332D02*
X91654819Y-90164285D01*
X91654819Y-90164285D02*
X92035771Y-90497618D01*
X92035771Y-90497618D02*
X92035771Y-90354761D01*
X92035771Y-90354761D02*
X92083390Y-90259523D01*
X92083390Y-90259523D02*
X92131009Y-90211904D01*
X92131009Y-90211904D02*
X92226247Y-90164285D01*
X92226247Y-90164285D02*
X92464342Y-90164285D01*
X92464342Y-90164285D02*
X92559580Y-90211904D01*
X92559580Y-90211904D02*
X92607200Y-90259523D01*
X92607200Y-90259523D02*
X92654819Y-90354761D01*
X92654819Y-90354761D02*
X92654819Y-90640475D01*
X92654819Y-90640475D02*
X92607200Y-90735713D01*
X92607200Y-90735713D02*
X92559580Y-90783332D01*
X92704819Y-85216666D02*
X92228628Y-85549999D01*
X92704819Y-85788094D02*
X91704819Y-85788094D01*
X91704819Y-85788094D02*
X91704819Y-85407142D01*
X91704819Y-85407142D02*
X91752438Y-85311904D01*
X91752438Y-85311904D02*
X91800057Y-85264285D01*
X91800057Y-85264285D02*
X91895295Y-85216666D01*
X91895295Y-85216666D02*
X92038152Y-85216666D01*
X92038152Y-85216666D02*
X92133390Y-85264285D01*
X92133390Y-85264285D02*
X92181009Y-85311904D01*
X92181009Y-85311904D02*
X92228628Y-85407142D01*
X92228628Y-85407142D02*
X92228628Y-85788094D01*
X91800057Y-84835713D02*
X91752438Y-84788094D01*
X91752438Y-84788094D02*
X91704819Y-84692856D01*
X91704819Y-84692856D02*
X91704819Y-84454761D01*
X91704819Y-84454761D02*
X91752438Y-84359523D01*
X91752438Y-84359523D02*
X91800057Y-84311904D01*
X91800057Y-84311904D02*
X91895295Y-84264285D01*
X91895295Y-84264285D02*
X91990533Y-84264285D01*
X91990533Y-84264285D02*
X92133390Y-84311904D01*
X92133390Y-84311904D02*
X92704819Y-84883332D01*
X92704819Y-84883332D02*
X92704819Y-84264285D01*
D13*
%TO.C,J2*%
X107960000Y-95600000D02*
X107960000Y-90300000D01*
X107960000Y-93420000D02*
X107360000Y-93420000D01*
X107960000Y-90880000D02*
X107360000Y-90880000D01*
X107960000Y-90300000D02*
X101940000Y-90300000D01*
X107360000Y-95020000D02*
X107960000Y-95020000D01*
X107360000Y-93420000D02*
X107360000Y-95020000D01*
X107360000Y-92480000D02*
X107960000Y-92480000D01*
X107360000Y-90880000D02*
X107360000Y-92480000D01*
X106930000Y-90010000D02*
X102930000Y-90010000D01*
X103470000Y-93970000D02*
X102940000Y-94220000D01*
X103470000Y-91930000D02*
X103470000Y-93970000D01*
X102940000Y-94220000D02*
X101940000Y-94220000D01*
X102940000Y-91680000D02*
X103470000Y-91930000D01*
X102940000Y-91680000D02*
X102940000Y-94220000D01*
X101940000Y-95600000D02*
X107960000Y-95600000D01*
X101940000Y-93970000D02*
X102940000Y-93970000D01*
X101940000Y-91930000D02*
X102940000Y-91930000D01*
X101940000Y-91680000D02*
X102940000Y-91680000D01*
X101940000Y-90300000D02*
X101940000Y-95600000D01*
%TO.C,R1*%
X87995276Y-97677500D02*
X88504724Y-97677500D01*
X87995276Y-98722500D02*
X88504724Y-98722500D01*
%TO.C,C4*%
X106033767Y-81140000D02*
X105741233Y-81140000D01*
X106033767Y-82160000D02*
X105741233Y-82160000D01*
%TO.C,J3*%
X80270000Y-83110000D02*
X81600000Y-83110000D01*
X80270000Y-84440000D02*
X80270000Y-83110000D01*
X80270000Y-85710000D02*
X80270000Y-95930000D01*
X80270000Y-85710000D02*
X82930000Y-85710000D01*
X80270000Y-95930000D02*
X82930000Y-95930000D01*
X82930000Y-85710000D02*
X82930000Y-95930000D01*
%TO.C,C2*%
X100690000Y-77766233D02*
X100690000Y-78058767D01*
X101710000Y-77766233D02*
X101710000Y-78058767D01*
%TO.C,Q2*%
X86412500Y-88590000D02*
X85762500Y-88590000D01*
X86412500Y-88590000D02*
X87062500Y-88590000D01*
X86412500Y-91710000D02*
X85762500Y-91710000D01*
X86412500Y-91710000D02*
X87062500Y-91710000D01*
X87815000Y-91990000D02*
X87335000Y-91990000D01*
X87575000Y-91660000D01*
X87815000Y-91990000D01*
G36*
X87815000Y-91990000D02*
G01*
X87335000Y-91990000D01*
X87575000Y-91660000D01*
X87815000Y-91990000D01*
G37*
%TO.C,Q1*%
X86412500Y-84190000D02*
X85762500Y-84190000D01*
X86412500Y-84190000D02*
X87062500Y-84190000D01*
X86412500Y-87310000D02*
X85762500Y-87310000D01*
X86412500Y-87310000D02*
X87062500Y-87310000D01*
X87815000Y-87590000D02*
X87335000Y-87590000D01*
X87575000Y-87260000D01*
X87815000Y-87590000D01*
G36*
X87815000Y-87590000D02*
G01*
X87335000Y-87590000D01*
X87575000Y-87260000D01*
X87815000Y-87590000D01*
G37*
%TO.C,U1*%
X97112500Y-89490000D02*
X94912500Y-89490000D01*
X97112500Y-89490000D02*
X99312500Y-89490000D01*
X97112500Y-96260000D02*
X94912500Y-96260000D01*
X97112500Y-96260000D02*
X99312500Y-96260000D01*
X93252500Y-89950000D02*
X92922500Y-90190000D01*
X92922500Y-89710000D01*
X93252500Y-89950000D01*
G36*
X93252500Y-89950000D02*
G01*
X92922500Y-90190000D01*
X92922500Y-89710000D01*
X93252500Y-89950000D01*
G37*
D14*
%TO.C,J1*%
X91295000Y-98400000D02*
X97645000Y-98400000D01*
X97645000Y-101830000D02*
X91295000Y-101830000D01*
D15*
X91930000Y-102250000D02*
G75*
G02*
X91830000Y-102250000I-50000J0D01*
G01*
X91830000Y-102250000D02*
G75*
G02*
X91930000Y-102250000I50000J0D01*
G01*
D13*
%TO.C,R4*%
X90127500Y-94432776D02*
X90127500Y-94942224D01*
X91172500Y-94432776D02*
X91172500Y-94942224D01*
%TO.C,C1*%
X100690000Y-81758767D02*
X100690000Y-81466233D01*
X101710000Y-81758767D02*
X101710000Y-81466233D01*
%TO.C,U4*%
X93490000Y-76340000D02*
X93490000Y-77600000D01*
X93490000Y-83160000D02*
X93490000Y-81900000D01*
X97250000Y-76340000D02*
X93490000Y-76340000D01*
X97250000Y-83160000D02*
X93490000Y-83160000D01*
X98770000Y-83390000D02*
X98290000Y-83390000D01*
X98530000Y-83060000D01*
X98770000Y-83390000D01*
G36*
X98770000Y-83390000D02*
G01*
X98290000Y-83390000D01*
X98530000Y-83060000D01*
X98770000Y-83390000D01*
G37*
%TO.C,Q3*%
X86412500Y-93090000D02*
X85762500Y-93090000D01*
X86412500Y-93090000D02*
X87062500Y-93090000D01*
X86412500Y-96210000D02*
X85762500Y-96210000D01*
X86412500Y-96210000D02*
X87062500Y-96210000D01*
X87815000Y-96490000D02*
X87335000Y-96490000D01*
X87575000Y-96160000D01*
X87815000Y-96490000D01*
G36*
X87815000Y-96490000D02*
G01*
X87335000Y-96490000D01*
X87575000Y-96160000D01*
X87815000Y-96490000D01*
G37*
%TO.C,U3*%
X104440000Y-78187500D02*
X104440000Y-77537500D01*
X104440000Y-78187500D02*
X104440000Y-78837500D01*
X107560000Y-78187500D02*
X107560000Y-77537500D01*
X107560000Y-78187500D02*
X107560000Y-78837500D01*
X104490000Y-79350000D02*
X104160000Y-79590000D01*
X104160000Y-79110000D01*
X104490000Y-79350000D01*
G36*
X104490000Y-79350000D02*
G01*
X104160000Y-79590000D01*
X104160000Y-79110000D01*
X104490000Y-79350000D01*
G37*
%TO.C,C3*%
X95858767Y-87740000D02*
X95566233Y-87740000D01*
X95858767Y-88760000D02*
X95566233Y-88760000D01*
%TO.C,R3*%
X90127500Y-89932776D02*
X90127500Y-90442224D01*
X91172500Y-89932776D02*
X91172500Y-90442224D01*
%TO.C,R2*%
X90127500Y-85532776D02*
X90127500Y-86042224D01*
X91172500Y-85532776D02*
X91172500Y-86042224D01*
%TD*%
M02*
