%TF.GenerationSoftware,KiCad,Pcbnew,9.0.0-9.0.0-2~ubuntu24.04.1*%
%TF.CreationDate,2025-03-10T00:00:20+00:00*%
%TF.ProjectId,boondocker-softstart,626f6f6e-646f-4636-9b65-722d736f6674,rev?*%
%TF.SameCoordinates,Original*%
%TF.FileFunction,Copper,L1,Top*%
%TF.FilePolarity,Positive*%
%FSLAX46Y46*%
G04 Gerber Fmt 4.6, Leading zero omitted, Abs format (unit mm)*
G04 Created by KiCad (PCBNEW 9.0.0-9.0.0-2~ubuntu24.04.1) date 2025-03-10 00:00:20*
%MOMM*%
%LPD*%
G01*
G04 APERTURE LIST*
G04 Aperture macros list*
%AMRoundRect*
0 Rectangle with rounded corners*
0 $1 Rounding radius*
0 $2 $3 $4 $5 $6 $7 $8 $9 X,Y pos of 4 corners*
0 Add a 4 corners polygon primitive as box body*
4,1,4,$2,$3,$4,$5,$6,$7,$8,$9,$2,$3,0*
0 Add four circle primitives for the rounded corners*
1,1,$1+$1,$2,$3*
1,1,$1+$1,$4,$5*
1,1,$1+$1,$6,$7*
1,1,$1+$1,$8,$9*
0 Add four rect primitives between the rounded corners*
20,1,$1+$1,$2,$3,$4,$5,0*
20,1,$1+$1,$4,$5,$6,$7,0*
20,1,$1+$1,$6,$7,$8,$9,0*
20,1,$1+$1,$8,$9,$2,$3,0*%
G04 Aperture macros list end*
%TA.AperFunction,ComponentPad*%
%ADD10O,2.190000X1.740000*%
%TD*%
%TA.AperFunction,ComponentPad*%
%ADD11RoundRect,0.250000X-0.845000X0.620000X-0.845000X-0.620000X0.845000X-0.620000X0.845000X0.620000X0*%
%TD*%
%TA.AperFunction,SMDPad,CuDef*%
%ADD12RoundRect,0.237500X-0.250000X-0.237500X0.250000X-0.237500X0.250000X0.237500X-0.250000X0.237500X0*%
%TD*%
%TA.AperFunction,SMDPad,CuDef*%
%ADD13RoundRect,0.237500X0.300000X0.237500X-0.300000X0.237500X-0.300000X-0.237500X0.300000X-0.237500X0*%
%TD*%
%TA.AperFunction,ComponentPad*%
%ADD14R,1.700000X1.700000*%
%TD*%
%TA.AperFunction,ComponentPad*%
%ADD15O,1.700000X1.700000*%
%TD*%
%TA.AperFunction,SMDPad,CuDef*%
%ADD16RoundRect,0.237500X-0.237500X0.300000X-0.237500X-0.300000X0.237500X-0.300000X0.237500X0.300000X0*%
%TD*%
%TA.AperFunction,SMDPad,CuDef*%
%ADD17RoundRect,0.150000X0.587500X0.150000X-0.587500X0.150000X-0.587500X-0.150000X0.587500X-0.150000X0*%
%TD*%
%TA.AperFunction,SMDPad,CuDef*%
%ADD18RoundRect,0.100000X-0.637500X-0.100000X0.637500X-0.100000X0.637500X0.100000X-0.637500X0.100000X0*%
%TD*%
%TA.AperFunction,ComponentPad*%
%ADD19C,1.150000*%
%TD*%
%TA.AperFunction,SMDPad,CuDef*%
%ADD20RoundRect,0.237500X-0.237500X0.250000X-0.237500X-0.250000X0.237500X-0.250000X0.237500X0.250000X0*%
%TD*%
%TA.AperFunction,SMDPad,CuDef*%
%ADD21RoundRect,0.237500X0.237500X-0.300000X0.237500X0.300000X-0.237500X0.300000X-0.237500X-0.300000X0*%
%TD*%
%TA.AperFunction,SMDPad,CuDef*%
%ADD22RoundRect,0.375000X0.625000X0.375000X-0.625000X0.375000X-0.625000X-0.375000X0.625000X-0.375000X0*%
%TD*%
%TA.AperFunction,SMDPad,CuDef*%
%ADD23RoundRect,0.500000X0.500000X1.400000X-0.500000X1.400000X-0.500000X-1.400000X0.500000X-1.400000X0*%
%TD*%
%TA.AperFunction,SMDPad,CuDef*%
%ADD24RoundRect,0.150000X0.150000X-0.587500X0.150000X0.587500X-0.150000X0.587500X-0.150000X-0.587500X0*%
%TD*%
%TA.AperFunction,ViaPad*%
%ADD25C,0.600000*%
%TD*%
%TA.AperFunction,ViaPad*%
%ADD26C,1.000000*%
%TD*%
%TA.AperFunction,Conductor*%
%ADD27C,0.400000*%
%TD*%
%TA.AperFunction,Conductor*%
%ADD28C,0.500000*%
%TD*%
%TA.AperFunction,Conductor*%
%ADD29C,0.800000*%
%TD*%
%TA.AperFunction,Conductor*%
%ADD30C,1.000000*%
%TD*%
G04 APERTURE END LIST*
D10*
%TO.P,J2,2,Pin_2*%
%TO.N,/nSW*%
X104930000Y-94220000D03*
D11*
%TO.P,J2,1,Pin_1*%
%TO.N,GND*%
X104930000Y-91680000D03*
%TD*%
D12*
%TO.P,R1,1*%
%TO.N,+3.3V*%
X87337500Y-98200000D03*
%TO.P,R1,2*%
%TO.N,/nSW*%
X89162500Y-98200000D03*
%TD*%
D13*
%TO.P,C4,1*%
%TO.N,+3.3V*%
X106750000Y-81650000D03*
%TO.P,C4,2*%
%TO.N,GND*%
X105025000Y-81650000D03*
%TD*%
D14*
%TO.P,J3,1,Pin_1*%
%TO.N,+BATT*%
X81600000Y-84440000D03*
D15*
%TO.P,J3,2,Pin_2*%
%TO.N,GND*%
X81600000Y-86980000D03*
%TO.P,J3,3,Pin_3*%
%TO.N,Net-(J3-Pin_3)*%
X81600000Y-89520000D03*
%TO.P,J3,4,Pin_4*%
%TO.N,Net-(J3-Pin_4)*%
X81600000Y-92060000D03*
%TO.P,J3,5,Pin_5*%
%TO.N,Net-(J3-Pin_5)*%
X81600000Y-94600000D03*
%TD*%
D16*
%TO.P,C2,1*%
%TO.N,Net-(U3-VI)*%
X101200000Y-77050000D03*
%TO.P,C2,2*%
%TO.N,GND*%
X101200000Y-78775000D03*
%TD*%
D17*
%TO.P,Q2,1,B*%
%TO.N,/nDISHY*%
X87350000Y-91100000D03*
%TO.P,Q2,2,E*%
%TO.N,GND*%
X87350000Y-89200000D03*
%TO.P,Q2,3,C*%
%TO.N,Net-(J3-Pin_4)*%
X85475000Y-90150000D03*
%TD*%
%TO.P,Q1,1,B*%
%TO.N,/nDCDC*%
X87350000Y-86700000D03*
%TO.P,Q1,2,E*%
%TO.N,GND*%
X87350000Y-84800000D03*
%TO.P,Q1,3,C*%
%TO.N,Net-(J3-Pin_3)*%
X85475000Y-85750000D03*
%TD*%
D18*
%TO.P,U1,1,BOOT0*%
%TO.N,GND*%
X94250000Y-89950000D03*
%TO.P,U1,2,PF0*%
%TO.N,unconnected-(U1-PF0-Pad2)*%
X94250000Y-90600000D03*
%TO.P,U1,3,PF1*%
%TO.N,unconnected-(U1-PF1-Pad3)*%
X94250000Y-91250000D03*
%TO.P,U1,4,NRST*%
%TO.N,/nRST*%
X94250000Y-91900000D03*
%TO.P,U1,5,VDDA*%
%TO.N,+3.3V*%
X94250000Y-92550000D03*
%TO.P,U1,6,PA0*%
%TO.N,/nDCDC*%
X94250000Y-93200000D03*
%TO.P,U1,7,PA1*%
%TO.N,/nDISHY*%
X94250000Y-93850000D03*
%TO.P,U1,8,PA2*%
%TO.N,/nPoE*%
X94250000Y-94500000D03*
%TO.P,U1,9,PA3*%
%TO.N,/nSW*%
X94250000Y-95150000D03*
%TO.P,U1,10,PA4*%
%TO.N,unconnected-(U1-PA4-Pad10)*%
X94250000Y-95800000D03*
%TO.P,U1,11,PA5*%
%TO.N,unconnected-(U1-PA5-Pad11)*%
X99975000Y-95800000D03*
%TO.P,U1,12,PA6*%
%TO.N,unconnected-(U1-PA6-Pad12)*%
X99975000Y-95150000D03*
%TO.P,U1,13,PA7*%
%TO.N,unconnected-(U1-PA7-Pad13)*%
X99975000Y-94500000D03*
%TO.P,U1,14,PB1*%
%TO.N,unconnected-(U1-PB1-Pad14)*%
X99975000Y-93850000D03*
%TO.P,U1,15,VSS*%
%TO.N,GND*%
X99975000Y-93200000D03*
%TO.P,U1,16,VDD*%
%TO.N,+3.3V*%
X99975000Y-92550000D03*
%TO.P,U1,17,PA9*%
%TO.N,unconnected-(U1-PA9-Pad17)*%
X99975000Y-91900000D03*
%TO.P,U1,18,PA10*%
%TO.N,unconnected-(U1-PA10-Pad18)*%
X99975000Y-91250000D03*
%TO.P,U1,19,PA13*%
%TO.N,/SWDAT*%
X99975000Y-90600000D03*
%TO.P,U1,20,PA14*%
%TO.N,/SWCLK*%
X99975000Y-89950000D03*
%TD*%
D19*
%TO.P,J1,1,1*%
%TO.N,+3.3V*%
X91930000Y-100750000D03*
%TO.P,J1,2,2*%
%TO.N,/SWDAT*%
X91930000Y-99480000D03*
%TO.P,J1,3,3*%
%TO.N,GND*%
X93200000Y-100750000D03*
%TO.P,J1,4,4*%
%TO.N,/SWCLK*%
X93200000Y-99480000D03*
%TO.P,J1,5,5*%
%TO.N,GND*%
X94470000Y-100750000D03*
%TO.P,J1,6,6*%
%TO.N,unconnected-(J1-Pad6)*%
X94470000Y-99480000D03*
%TO.P,J1,7,7*%
%TO.N,unconnected-(J1-Pad7)*%
X95740000Y-100750000D03*
%TO.P,J1,8,8*%
%TO.N,unconnected-(J1-Pad8)*%
X95740000Y-99480000D03*
%TO.P,J1,9,9*%
%TO.N,unconnected-(J1-Pad9)*%
X97010000Y-100750000D03*
%TO.P,J1,10,10*%
%TO.N,/nRST*%
X97010000Y-99480000D03*
%TD*%
D20*
%TO.P,R4,1*%
%TO.N,+3.3V*%
X90650000Y-93775000D03*
%TO.P,R4,2*%
%TO.N,/nPoE*%
X90650000Y-95600000D03*
%TD*%
D21*
%TO.P,C1,1*%
%TO.N,+BATT*%
X101200000Y-82475000D03*
%TO.P,C1,2*%
%TO.N,GND*%
X101200000Y-80750000D03*
%TD*%
D22*
%TO.P,U4,1,IN*%
%TO.N,+BATT*%
X98550000Y-82050000D03*
%TO.P,U4,2,GND*%
%TO.N,GND*%
X98550000Y-79750000D03*
D23*
X92250000Y-79750000D03*
D22*
%TO.P,U4,3,OUT*%
%TO.N,Net-(U3-VI)*%
X98550000Y-77450000D03*
%TD*%
D17*
%TO.P,Q3,1,B*%
%TO.N,/nPoE*%
X87350000Y-95600000D03*
%TO.P,Q3,2,E*%
%TO.N,GND*%
X87350000Y-93700000D03*
%TO.P,Q3,3,C*%
%TO.N,Net-(J3-Pin_5)*%
X85475000Y-94650000D03*
%TD*%
D24*
%TO.P,U3,1,GND*%
%TO.N,GND*%
X105050000Y-79125000D03*
%TO.P,U3,2,VO*%
%TO.N,+3.3V*%
X106950000Y-79125000D03*
%TO.P,U3,3,VI*%
%TO.N,Net-(U3-VI)*%
X106000000Y-77250000D03*
%TD*%
D13*
%TO.P,C3,1*%
%TO.N,+3.3V*%
X96575000Y-88250000D03*
%TO.P,C3,2*%
%TO.N,GND*%
X94850000Y-88250000D03*
%TD*%
D20*
%TO.P,R3,1*%
%TO.N,+3.3V*%
X90650000Y-89275000D03*
%TO.P,R3,2*%
%TO.N,/nDISHY*%
X90650000Y-91100000D03*
%TD*%
%TO.P,R2,1*%
%TO.N,+3.3V*%
X90650000Y-84875000D03*
%TO.P,R2,2*%
%TO.N,/nDCDC*%
X90650000Y-86700000D03*
%TD*%
D25*
%TO.N,/SWCLK*%
X98450000Y-89300000D03*
%TO.N,/SWDAT*%
X98350000Y-90600000D03*
%TO.N,+3.3V*%
X90650000Y-88105000D03*
X93150000Y-88150000D03*
X88100000Y-96975000D03*
X90650000Y-92600000D03*
%TO.N,/nRST*%
X97450000Y-94450000D03*
X95900000Y-91550000D03*
D26*
%TO.N,GND*%
X94400000Y-78550000D03*
D25*
X96550000Y-94850000D03*
X95950000Y-90450000D03*
X89000000Y-93550000D03*
D26*
X90000000Y-80550000D03*
X91400000Y-82750000D03*
X90000000Y-81800000D03*
D25*
X89000000Y-89100000D03*
D26*
X93000000Y-82750000D03*
X93000000Y-76700000D03*
X90000000Y-77700000D03*
X91450000Y-76750000D03*
D25*
X97250000Y-92950000D03*
D26*
X94400000Y-80850000D03*
X90000000Y-79000000D03*
D25*
%TO.N,+BATT*%
X95750000Y-84440000D03*
%TD*%
D27*
%TO.N,/nSW*%
X89162500Y-98200000D02*
X89150000Y-98212500D01*
X89150000Y-98212500D02*
X89150000Y-102250000D01*
X97550000Y-102900000D02*
X98350000Y-102100000D01*
X89150000Y-102250000D02*
X89800000Y-102900000D01*
X100250000Y-96550000D02*
X102600000Y-96550000D01*
X89800000Y-102900000D02*
X97550000Y-102900000D01*
X98350000Y-98450000D02*
X100250000Y-96550000D01*
X102600000Y-96550000D02*
X104930000Y-94220000D01*
X98350000Y-102100000D02*
X98350000Y-98450000D01*
%TO.N,GND*%
X99975000Y-93200000D02*
X101500000Y-93200000D01*
X101500000Y-93200000D02*
X103020000Y-91680000D01*
X103020000Y-91680000D02*
X104930000Y-91680000D01*
%TO.N,/nRST*%
X97450000Y-94450000D02*
X97500000Y-94500000D01*
X97500000Y-94500000D02*
X97500000Y-98990000D01*
X97500000Y-98990000D02*
X97010000Y-99480000D01*
%TO.N,+3.3V*%
X95800000Y-92550000D02*
X95800000Y-96000000D01*
X92148942Y-97301000D02*
X90699000Y-97301000D01*
X90960000Y-100750000D02*
X91930000Y-100750000D01*
X95800000Y-96000000D02*
X94500000Y-97300000D01*
X94500000Y-97300000D02*
X92149942Y-97300000D01*
X92149942Y-97300000D02*
X92148942Y-97301000D01*
X90699000Y-97301000D02*
X90250000Y-97750000D01*
X90250000Y-97750000D02*
X90250000Y-100040000D01*
X90250000Y-100040000D02*
X90960000Y-100750000D01*
%TO.N,/nSW*%
X94250000Y-95150000D02*
X93100000Y-95150000D01*
X93100000Y-95150000D02*
X91550000Y-96700000D01*
X91550000Y-96700000D02*
X89750000Y-96700000D01*
X89750000Y-96700000D02*
X89162500Y-97287500D01*
X89162500Y-97287500D02*
X89162500Y-98200000D01*
D28*
%TO.N,+3.3V*%
X87625000Y-96975000D02*
X87337500Y-97262500D01*
X88100000Y-96975000D02*
X87625000Y-96975000D01*
X87337500Y-97262500D02*
X87337500Y-98200000D01*
D27*
%TO.N,/SWCLK*%
X99100000Y-89950000D02*
X98450000Y-89300000D01*
X99975000Y-89950000D02*
X99100000Y-89950000D01*
%TO.N,/SWDAT*%
X98350000Y-90600000D02*
X99975000Y-90600000D01*
D28*
%TO.N,+3.3V*%
X97250000Y-91750000D02*
X97250000Y-90350000D01*
X97250000Y-90350000D02*
X96575000Y-89675000D01*
X96575000Y-89675000D02*
X96575000Y-88250000D01*
D29*
%TO.N,Net-(U3-VI)*%
X101200000Y-77050000D02*
X98950000Y-77050000D01*
X98950000Y-77050000D02*
X98550000Y-77450000D01*
X101200000Y-77050000D02*
X105800000Y-77050000D01*
X105800000Y-77050000D02*
X106000000Y-77250000D01*
D28*
%TO.N,Net-(J3-Pin_3)*%
X85475000Y-86825000D02*
X85475000Y-85750000D01*
X81600000Y-89520000D02*
X82780000Y-89520000D01*
X82780000Y-89520000D02*
X85475000Y-86825000D01*
%TO.N,Net-(J3-Pin_5)*%
X85425000Y-94600000D02*
X85475000Y-94650000D01*
X81600000Y-94600000D02*
X85425000Y-94600000D01*
D27*
%TO.N,+3.3V*%
X90650000Y-93775000D02*
X90650000Y-92600000D01*
D29*
X106950000Y-81450000D02*
X106750000Y-81650000D01*
D27*
X93451208Y-92550000D02*
X92850000Y-91948792D01*
X96450000Y-92550000D02*
X95800000Y-92550000D01*
D29*
X106950000Y-79125000D02*
X106950000Y-81450000D01*
D28*
X106750000Y-81700000D02*
X100200000Y-88250000D01*
D27*
X94250000Y-92550000D02*
X93451208Y-92550000D01*
X92775000Y-84875000D02*
X93150000Y-85250000D01*
D28*
X106750000Y-81650000D02*
X106750000Y-81700000D01*
X100200000Y-88250000D02*
X96575000Y-88250000D01*
D27*
X92850000Y-88450000D02*
X93150000Y-88150000D01*
X97250000Y-91750000D02*
X96450000Y-92550000D01*
X98050000Y-92550000D02*
X97250000Y-91750000D01*
X90650000Y-84875000D02*
X92775000Y-84875000D01*
X90650000Y-89275000D02*
X90650000Y-88105000D01*
X99975000Y-92550000D02*
X98050000Y-92550000D01*
X93150000Y-85250000D02*
X93150000Y-88150000D01*
X92850000Y-91948792D02*
X92850000Y-88450000D01*
X95800000Y-92550000D02*
X94250000Y-92550000D01*
%TO.N,/nDISHY*%
X91650000Y-93300000D02*
X91650000Y-92100000D01*
X91650000Y-92100000D02*
X90650000Y-91100000D01*
X92200000Y-93850000D02*
X91650000Y-93300000D01*
D28*
X87350000Y-91100000D02*
X90650000Y-91100000D01*
D27*
X94250000Y-93850000D02*
X92200000Y-93850000D01*
%TO.N,/nRST*%
X95900000Y-91550000D02*
X95550000Y-91900000D01*
X95550000Y-91900000D02*
X94250000Y-91900000D01*
%TO.N,GND*%
X99975000Y-93200000D02*
X97500000Y-93200000D01*
X94250000Y-89950000D02*
X94900000Y-89950000D01*
D28*
X95150000Y-87100000D02*
X94850000Y-87400000D01*
X84340000Y-84800000D02*
X87350000Y-84800000D01*
D30*
X83900000Y-84450000D02*
X85400000Y-82950000D01*
D29*
X105025000Y-79950000D02*
X105025000Y-79150000D01*
X104825000Y-79750000D02*
X105025000Y-79950000D01*
D28*
X87350000Y-93700000D02*
X88850000Y-93700000D01*
X88900000Y-89200000D02*
X89000000Y-89100000D01*
D27*
X97500000Y-93200000D02*
X96550000Y-94150000D01*
D28*
X99450000Y-87100000D02*
X95150000Y-87100000D01*
D27*
X97250000Y-93450000D02*
X97250000Y-92950000D01*
D28*
X94850000Y-87400000D02*
X94850000Y-88250000D01*
X81600000Y-86980000D02*
X82160000Y-86980000D01*
D30*
X83900000Y-85379848D02*
X83900000Y-84450000D01*
X98550000Y-79750000D02*
X101050000Y-79750000D01*
D29*
X101200000Y-79900000D02*
X101050000Y-79750000D01*
X101050000Y-79750000D02*
X104825000Y-79750000D01*
D28*
X94850000Y-89350000D02*
X94850000Y-88250000D01*
D29*
X101200000Y-78775000D02*
X101200000Y-79600000D01*
D28*
X82160000Y-86980000D02*
X84340000Y-84800000D01*
X88850000Y-93700000D02*
X89000000Y-93550000D01*
D27*
X95175000Y-89675000D02*
X95950000Y-90450000D01*
D29*
X105025000Y-79150000D02*
X105050000Y-79125000D01*
D30*
X87250000Y-82950000D02*
X87850000Y-82350000D01*
D27*
X94900000Y-89950000D02*
X95175000Y-89675000D01*
D30*
X85400000Y-82950000D02*
X87250000Y-82950000D01*
X87850000Y-82350000D02*
X87850000Y-80450000D01*
D28*
X105025000Y-81650000D02*
X104900000Y-81650000D01*
D29*
X105025000Y-81650000D02*
X105025000Y-79150000D01*
D28*
X104900000Y-81650000D02*
X99450000Y-87100000D01*
D29*
X92250000Y-79750000D02*
X98550000Y-79750000D01*
D28*
X87350000Y-89200000D02*
X88900000Y-89200000D01*
D29*
X101200000Y-79600000D02*
X101050000Y-79750000D01*
X101200000Y-80750000D02*
X101200000Y-79900000D01*
D30*
X82299848Y-86980000D02*
X83900000Y-85379848D01*
X81600000Y-86980000D02*
X82299848Y-86980000D01*
D27*
X96550000Y-94150000D02*
X97250000Y-93450000D01*
D28*
X95175000Y-89675000D02*
X94850000Y-89350000D01*
D27*
X96550000Y-94150000D02*
X96550000Y-94850000D01*
%TO.N,/nDCDC*%
X94250000Y-93200000D02*
X92550000Y-93200000D01*
X92250000Y-88300000D02*
X90650000Y-86700000D01*
X92250000Y-92900000D02*
X92250000Y-88300000D01*
X92550000Y-93200000D02*
X92250000Y-92900000D01*
D28*
X87350000Y-86700000D02*
X90650000Y-86700000D01*
D27*
%TO.N,/nPoE*%
X91750000Y-94500000D02*
X90650000Y-95600000D01*
D28*
X87350000Y-95600000D02*
X90650000Y-95600000D01*
D27*
X94250000Y-94500000D02*
X91750000Y-94500000D01*
D29*
%TO.N,+BATT*%
X98975000Y-82475000D02*
X98550000Y-82050000D01*
D30*
X97950000Y-84450000D02*
X98550000Y-83850000D01*
X98550000Y-83850000D02*
X98550000Y-82050000D01*
D29*
X101200000Y-82475000D02*
X98975000Y-82475000D01*
D30*
X97940000Y-84440000D02*
X97950000Y-84450000D01*
X95750000Y-84440000D02*
X97940000Y-84440000D01*
D28*
%TO.N,Net-(J3-Pin_4)*%
X83565000Y-92060000D02*
X85475000Y-90150000D01*
X81600000Y-92060000D02*
X83565000Y-92060000D01*
%TD*%
%TA.AperFunction,Conductor*%
%TO.N,GND*%
G36*
X97111971Y-76102381D02*
G01*
X97152346Y-76110412D01*
X97197043Y-76128927D01*
X97220913Y-76144877D01*
X97226805Y-76150769D01*
X97231537Y-76152829D01*
X97255122Y-76179086D01*
X97271072Y-76202956D01*
X97289588Y-76247655D01*
X97297617Y-76288020D01*
X97300000Y-76312210D01*
X97300000Y-76411451D01*
X97280315Y-76478490D01*
X97272648Y-76489138D01*
X97182970Y-76600702D01*
X97098360Y-76771304D01*
X97052400Y-76956107D01*
X97049500Y-76998879D01*
X97049500Y-77901122D01*
X97049501Y-77901125D01*
X97052399Y-77943886D01*
X97052399Y-77943887D01*
X97098360Y-78128696D01*
X97182967Y-78299292D01*
X97182969Y-78299295D01*
X97272647Y-78410859D01*
X97299306Y-78475443D01*
X97300000Y-78488546D01*
X97300000Y-81011451D01*
X97280315Y-81078490D01*
X97272648Y-81089138D01*
X97182970Y-81200702D01*
X97098360Y-81371304D01*
X97052400Y-81556107D01*
X97049500Y-81598879D01*
X97049500Y-82501122D01*
X97049501Y-82501125D01*
X97052399Y-82543886D01*
X97052399Y-82543887D01*
X97098360Y-82728696D01*
X97182967Y-82899292D01*
X97182969Y-82899295D01*
X97272647Y-83010859D01*
X97281885Y-83033239D01*
X97294977Y-83053611D01*
X97297479Y-83071019D01*
X97299306Y-83075443D01*
X97300000Y-83088546D01*
X97300000Y-83267076D01*
X97297617Y-83291268D01*
X97291817Y-83320425D01*
X97273301Y-83365125D01*
X97263701Y-83379492D01*
X97229500Y-83413696D01*
X97222168Y-83418596D01*
X97155492Y-83439480D01*
X97153268Y-83439500D01*
X95651457Y-83439500D01*
X95610652Y-83447617D01*
X95586460Y-83450000D01*
X86812211Y-83450000D01*
X86788020Y-83447617D01*
X86772744Y-83444578D01*
X86747656Y-83439588D01*
X86702956Y-83421072D01*
X86679086Y-83405122D01*
X86644877Y-83370913D01*
X86628927Y-83347043D01*
X86610412Y-83302346D01*
X86602381Y-83261971D01*
X86600000Y-83237789D01*
X86600000Y-81208000D01*
X90750000Y-81208000D01*
X90760608Y-81327325D01*
X90760609Y-81327328D01*
X90816557Y-81522861D01*
X90910721Y-81703129D01*
X91039246Y-81860753D01*
X91196870Y-81989278D01*
X91377138Y-82083442D01*
X91572671Y-82139390D01*
X91572674Y-82139391D01*
X91691999Y-82149999D01*
X91692002Y-82150000D01*
X92000000Y-82150000D01*
X92500000Y-82150000D01*
X92807998Y-82150000D01*
X92808000Y-82149999D01*
X92927325Y-82139391D01*
X92927328Y-82139390D01*
X93122861Y-82083442D01*
X93303129Y-81989278D01*
X93460753Y-81860753D01*
X93589278Y-81703129D01*
X93683442Y-81522861D01*
X93739390Y-81327328D01*
X93739391Y-81327325D01*
X93749999Y-81208000D01*
X93750000Y-81207998D01*
X93750000Y-80000000D01*
X92500000Y-80000000D01*
X92500000Y-82150000D01*
X92000000Y-82150000D01*
X92000000Y-80000000D01*
X90750000Y-80000000D01*
X90750000Y-81208000D01*
X86600000Y-81208000D01*
X86600000Y-78291999D01*
X90750000Y-78291999D01*
X90750000Y-79500000D01*
X92000000Y-79500000D01*
X92500000Y-79500000D01*
X93750000Y-79500000D01*
X93750000Y-78292002D01*
X93749999Y-78291999D01*
X93739391Y-78172674D01*
X93739390Y-78172671D01*
X93683442Y-77977138D01*
X93589278Y-77796870D01*
X93460753Y-77639246D01*
X93303129Y-77510721D01*
X93122861Y-77416557D01*
X92927328Y-77360609D01*
X92927325Y-77360608D01*
X92808000Y-77350000D01*
X92500000Y-77350000D01*
X92500000Y-79500000D01*
X92000000Y-79500000D01*
X92000000Y-77350000D01*
X91691999Y-77350000D01*
X91572674Y-77360608D01*
X91572671Y-77360609D01*
X91377138Y-77416557D01*
X91196870Y-77510721D01*
X91039246Y-77639246D01*
X90910721Y-77796870D01*
X90816557Y-77977138D01*
X90760609Y-78172671D01*
X90760608Y-78172674D01*
X90750000Y-78291999D01*
X86600000Y-78291999D01*
X86600000Y-76312210D01*
X86602381Y-76288029D01*
X86610412Y-76247651D01*
X86628927Y-76202956D01*
X86644877Y-76179086D01*
X86679086Y-76144877D01*
X86702956Y-76128927D01*
X86747653Y-76110412D01*
X86788027Y-76102381D01*
X86812211Y-76100000D01*
X97087789Y-76100000D01*
X97111971Y-76102381D01*
G37*
%TD.AperFunction*%
%TD*%
M02*
