M48
; DRILL file {KiCad 9.0.0-9.0.0-2~ubuntu24.04.1} date 2025-03-10T00:00:25+0000
; FORMAT={-:-/ absolute / inch / decimal}
; #@! TF.CreationDate,2025-03-10T00:00:25+00:00
; #@! TF.GenerationSoftware,Kicad,Pcbnew,9.0.0-9.0.0-2~ubuntu24.04.1
; #@! TF.FileFunction,Plated,1,2,PTH
FMAT,2
INCH
; #@! TA.AperFunction,Plated,PTH,ViaDrill
T1C0.0118
; #@! TA.AperFunction,Plated,PTH,ViaDrill
T2C0.0197
; #@! TA.AperFunction,Plated,PTH,ComponentDrill
T3C0.0280
; #@! TA.AperFunction,Plated,PTH,ComponentDrill
T4C0.0394
; #@! TA.AperFunction,Plated,PTH,ComponentDrill
T5C0.0469
%
G90
G05
T1
X3.4685Y-3.8179
X3.5039Y-3.5079
X3.5039Y-3.6831
X3.5689Y-3.4687
X3.5689Y-3.6457
X3.6673Y-3.4705
X3.7697Y-3.3244
X3.7756Y-3.6043
X3.7776Y-3.561
X3.8012Y-3.7343
X3.8287Y-3.6594
X3.8366Y-3.7185
X3.872Y-3.5669
X3.876Y-3.5157
T2
X3.5433Y-3.0591
X3.5433Y-3.1102
X3.5433Y-3.1713
X3.5433Y-3.2205
X3.5984Y-3.2579
X3.6004Y-3.0217
X3.6614Y-3.0197
X3.6614Y-3.2579
X3.7165Y-3.0925
X3.7165Y-3.1831
T3
X3.6193Y-3.9165
X3.6193Y-3.9665
X3.6693Y-3.9165
X3.6693Y-3.9665
X3.7193Y-3.9165
X3.7193Y-3.9665
X3.7693Y-3.9165
X3.7693Y-3.9665
X3.8193Y-3.9165
X3.8193Y-3.9665
T4
X3.2126Y-3.3244
X3.2126Y-3.4244
X3.2126Y-3.5244
X3.2126Y-3.6244
X3.2126Y-3.7244
T5
X4.1311Y-3.6094
X4.1311Y-3.7094
M30
