%TF.GenerationSoftware,KiCad,Pcbnew,9.0.0-9.0.0-2~ubuntu24.04.1*%
%TF.CreationDate,2025-03-10T00:00:20+00:00*%
%TF.ProjectId,boondocker-softstart,626f6f6e-646f-4636-9b65-722d736f6674,rev?*%
%TF.SameCoordinates,Original*%
%TF.FileFunction,Paste,Top*%
%TF.FilePolarity,Positive*%
%FSLAX46Y46*%
G04 Gerber Fmt 4.6, Leading zero omitted, Abs format (unit mm)*
G04 Created by KiCad (PCBNEW 9.0.0-9.0.0-2~ubuntu24.04.1) date 2025-03-10 00:00:20*
%MOMM*%
%LPD*%
G01*
G04 APERTURE LIST*
G04 Aperture macros list*
%AMRoundRect*
0 Rectangle with rounded corners*
0 $1 Rounding radius*
0 $2 $3 $4 $5 $6 $7 $8 $9 X,Y pos of 4 corners*
0 Add a 4 corners polygon primitive as box body*
4,1,4,$2,$3,$4,$5,$6,$7,$8,$9,$2,$3,0*
0 Add four circle primitives for the rounded corners*
1,1,$1+$1,$2,$3*
1,1,$1+$1,$4,$5*
1,1,$1+$1,$6,$7*
1,1,$1+$1,$8,$9*
0 Add four rect primitives between the rounded corners*
20,1,$1+$1,$2,$3,$4,$5,0*
20,1,$1+$1,$4,$5,$6,$7,0*
20,1,$1+$1,$6,$7,$8,$9,0*
20,1,$1+$1,$8,$9,$2,$3,0*%
G04 Aperture macros list end*
%ADD10RoundRect,0.237500X-0.250000X-0.237500X0.250000X-0.237500X0.250000X0.237500X-0.250000X0.237500X0*%
%ADD11RoundRect,0.237500X0.300000X0.237500X-0.300000X0.237500X-0.300000X-0.237500X0.300000X-0.237500X0*%
%ADD12RoundRect,0.237500X-0.237500X0.300000X-0.237500X-0.300000X0.237500X-0.300000X0.237500X0.300000X0*%
%ADD13RoundRect,0.150000X0.587500X0.150000X-0.587500X0.150000X-0.587500X-0.150000X0.587500X-0.150000X0*%
%ADD14RoundRect,0.100000X-0.637500X-0.100000X0.637500X-0.100000X0.637500X0.100000X-0.637500X0.100000X0*%
%ADD15RoundRect,0.237500X-0.237500X0.250000X-0.237500X-0.250000X0.237500X-0.250000X0.237500X0.250000X0*%
%ADD16RoundRect,0.237500X0.237500X-0.300000X0.237500X0.300000X-0.237500X0.300000X-0.237500X-0.300000X0*%
%ADD17RoundRect,0.375000X0.625000X0.375000X-0.625000X0.375000X-0.625000X-0.375000X0.625000X-0.375000X0*%
%ADD18RoundRect,0.500000X0.500000X1.400000X-0.500000X1.400000X-0.500000X-1.400000X0.500000X-1.400000X0*%
%ADD19RoundRect,0.150000X0.150000X-0.587500X0.150000X0.587500X-0.150000X0.587500X-0.150000X-0.587500X0*%
G04 APERTURE END LIST*
D10*
%TO.C,R1*%
X87337500Y-98200000D03*
X89162500Y-98200000D03*
%TD*%
D11*
%TO.C,C4*%
X106750000Y-81650000D03*
X105025000Y-81650000D03*
%TD*%
D12*
%TO.C,C2*%
X101200000Y-77050000D03*
X101200000Y-78775000D03*
%TD*%
D13*
%TO.C,Q2*%
X87350000Y-91100000D03*
X87350000Y-89200000D03*
X85475000Y-90150000D03*
%TD*%
%TO.C,Q1*%
X87350000Y-86700000D03*
X87350000Y-84800000D03*
X85475000Y-85750000D03*
%TD*%
D14*
%TO.C,U1*%
X94250000Y-89950000D03*
X94250000Y-90600000D03*
X94250000Y-91250000D03*
X94250000Y-91900000D03*
X94250000Y-92550000D03*
X94250000Y-93200000D03*
X94250000Y-93850000D03*
X94250000Y-94500000D03*
X94250000Y-95150000D03*
X94250000Y-95800000D03*
X99975000Y-95800000D03*
X99975000Y-95150000D03*
X99975000Y-94500000D03*
X99975000Y-93850000D03*
X99975000Y-93200000D03*
X99975000Y-92550000D03*
X99975000Y-91900000D03*
X99975000Y-91250000D03*
X99975000Y-90600000D03*
X99975000Y-89950000D03*
%TD*%
D15*
%TO.C,R4*%
X90650000Y-93775000D03*
X90650000Y-95600000D03*
%TD*%
D16*
%TO.C,C1*%
X101200000Y-82475000D03*
X101200000Y-80750000D03*
%TD*%
D17*
%TO.C,U4*%
X98550000Y-82050000D03*
X98550000Y-79750000D03*
D18*
X92250000Y-79750000D03*
D17*
X98550000Y-77450000D03*
%TD*%
D13*
%TO.C,Q3*%
X87350000Y-95600000D03*
X87350000Y-93700000D03*
X85475000Y-94650000D03*
%TD*%
D19*
%TO.C,U3*%
X105050000Y-79125000D03*
X106950000Y-79125000D03*
X106000000Y-77250000D03*
%TD*%
D11*
%TO.C,C3*%
X96575000Y-88250000D03*
X94850000Y-88250000D03*
%TD*%
D15*
%TO.C,R3*%
X90650000Y-89275000D03*
X90650000Y-91100000D03*
%TD*%
%TO.C,R2*%
X90650000Y-84875000D03*
X90650000Y-86700000D03*
%TD*%
M02*
